G04 #@! TF.GenerationSoftware,KiCad,Pcbnew,9.0.5*
G04 #@! TF.CreationDate,2026-04-20T16:12:51+09:00*
G04 #@! TF.ProjectId,pippitank-engine,70697070-6974-4616-9e6b-2d656e67696e,rev?*
G04 #@! TF.SameCoordinates,Original*
G04 #@! TF.FileFunction,Copper,L1,Top*
G04 #@! TF.FilePolarity,Positive*
%FSLAX46Y46*%
G04 Gerber Fmt 4.6, Leading zero omitted, Abs format (unit mm)*
G04 Created by KiCad (PCBNEW 9.0.5) date 2026-04-20 16:12:51*
%MOMM*%
%LPD*%
G01*
G04 APERTURE LIST*
G04 Aperture macros list*
%AMRoundRect*
0 Rectangle with rounded corners*
0 $1 Rounding radius*
0 $2 $3 $4 $5 $6 $7 $8 $9 X,Y pos of 4 corners*
0 Add a 4 corners polygon primitive as box body*
4,1,4,$2,$3,$4,$5,$6,$7,$8,$9,$2,$3,0*
0 Add four circle primitives for the rounded corners*
1,1,$1+$1,$2,$3*
1,1,$1+$1,$4,$5*
1,1,$1+$1,$6,$7*
1,1,$1+$1,$8,$9*
0 Add four rect primitives between the rounded corners*
20,1,$1+$1,$2,$3,$4,$5,0*
20,1,$1+$1,$4,$5,$6,$7,0*
20,1,$1+$1,$6,$7,$8,$9,0*
20,1,$1+$1,$8,$9,$2,$3,0*%
%AMOutline5P*
0 Free polygon, 5 corners , with rotation*
0 The origin of the aperture is its center*
0 number of corners: always 5*
0 $1 to $10 corner X, Y*
0 $11 Rotation angle, in degrees counterclockwise*
0 create outline with 5 corners*
4,1,5,$1,$2,$3,$4,$5,$6,$7,$8,$9,$10,$1,$2,$11*%
%AMOutline6P*
0 Free polygon, 6 corners , with rotation*
0 The origin of the aperture is its center*
0 number of corners: always 6*
0 $1 to $12 corner X, Y*
0 $13 Rotation angle, in degrees counterclockwise*
0 create outline with 6 corners*
4,1,6,$1,$2,$3,$4,$5,$6,$7,$8,$9,$10,$11,$12,$1,$2,$13*%
%AMOutline7P*
0 Free polygon, 7 corners , with rotation*
0 The origin of the aperture is its center*
0 number of corners: always 7*
0 $1 to $14 corner X, Y*
0 $15 Rotation angle, in degrees counterclockwise*
0 create outline with 7 corners*
4,1,7,$1,$2,$3,$4,$5,$6,$7,$8,$9,$10,$11,$12,$13,$14,$1,$2,$15*%
%AMOutline8P*
0 Free polygon, 8 corners , with rotation*
0 The origin of the aperture is its center*
0 number of corners: always 8*
0 $1 to $16 corner X, Y*
0 $17 Rotation angle, in degrees counterclockwise*
0 create outline with 8 corners*
4,1,8,$1,$2,$3,$4,$5,$6,$7,$8,$9,$10,$11,$12,$13,$14,$15,$16,$1,$2,$17*%
G04 Aperture macros list end*
G04 #@! TA.AperFunction,ComponentPad*
%ADD10R,2.000000X0.900000*%
G04 #@! TD*
G04 #@! TA.AperFunction,ComponentPad*
%ADD11RoundRect,1.025000X1.025000X-1.025000X1.025000X1.025000X-1.025000X1.025000X-1.025000X-1.025000X0*%
G04 #@! TD*
G04 #@! TA.AperFunction,ComponentPad*
%ADD12C,4.100000*%
G04 #@! TD*
G04 #@! TA.AperFunction,ComponentPad*
%ADD13RoundRect,0.250000X0.725000X-0.600000X0.725000X0.600000X-0.725000X0.600000X-0.725000X-0.600000X0*%
G04 #@! TD*
G04 #@! TA.AperFunction,ComponentPad*
%ADD14O,1.950000X1.700000*%
G04 #@! TD*
G04 #@! TA.AperFunction,SMDPad,CuDef*
%ADD15RoundRect,0.250000X1.425000X-0.362500X1.425000X0.362500X-1.425000X0.362500X-1.425000X-0.362500X0*%
G04 #@! TD*
G04 #@! TA.AperFunction,ComponentPad*
%ADD16Outline5P,-1.600000X0.660000X-1.160000X1.100000X1.600000X1.100000X1.600000X-1.100000X-1.600000X-1.100000X270.000000*%
G04 #@! TD*
G04 #@! TA.AperFunction,ComponentPad*
%ADD17R,2.200000X3.200000*%
G04 #@! TD*
G04 #@! TA.AperFunction,ComponentPad*
%ADD18R,0.900000X2.000000*%
G04 #@! TD*
G04 #@! TA.AperFunction,ComponentPad*
%ADD19RoundRect,1.025000X-1.025000X-1.025000X1.025000X-1.025000X1.025000X1.025000X-1.025000X1.025000X0*%
G04 #@! TD*
G04 #@! TA.AperFunction,SMDPad,CuDef*
%ADD20RoundRect,0.250000X-0.362500X-1.425000X0.362500X-1.425000X0.362500X1.425000X-0.362500X1.425000X0*%
G04 #@! TD*
G04 #@! TA.AperFunction,SMDPad,CuDef*
%ADD21RoundRect,0.250000X0.362500X1.425000X-0.362500X1.425000X-0.362500X-1.425000X0.362500X-1.425000X0*%
G04 #@! TD*
G04 #@! TA.AperFunction,ComponentPad*
%ADD22RoundRect,1.025000X-1.025000X1.025000X-1.025000X-1.025000X1.025000X-1.025000X1.025000X1.025000X0*%
G04 #@! TD*
G04 #@! TA.AperFunction,SMDPad,CuDef*
%ADD23RoundRect,0.237500X0.237500X-0.250000X0.237500X0.250000X-0.237500X0.250000X-0.237500X-0.250000X0*%
G04 #@! TD*
G04 #@! TA.AperFunction,ComponentPad*
%ADD24Outline5P,-1.600000X0.660000X-1.160000X1.100000X1.600000X1.100000X1.600000X-1.100000X-1.600000X-1.100000X0.000000*%
G04 #@! TD*
G04 #@! TA.AperFunction,ComponentPad*
%ADD25R,3.200000X2.200000*%
G04 #@! TD*
G04 #@! TA.AperFunction,ComponentPad*
%ADD26RoundRect,0.250000X-0.600000X-0.725000X0.600000X-0.725000X0.600000X0.725000X-0.600000X0.725000X0*%
G04 #@! TD*
G04 #@! TA.AperFunction,ComponentPad*
%ADD27O,1.700000X1.950000*%
G04 #@! TD*
G04 #@! TA.AperFunction,ComponentPad*
%ADD28C,1.400000*%
G04 #@! TD*
G04 #@! TA.AperFunction,ComponentPad*
%ADD29RoundRect,0.770000X0.980000X0.980000X-0.980000X0.980000X-0.980000X-0.980000X0.980000X-0.980000X0*%
G04 #@! TD*
G04 #@! TA.AperFunction,ComponentPad*
%ADD30C,3.500000*%
G04 #@! TD*
G04 #@! TA.AperFunction,SMDPad,CuDef*
%ADD31R,0.600000X0.510000*%
G04 #@! TD*
G04 #@! TA.AperFunction,SMDPad,CuDef*
%ADD32R,0.900000X0.700000*%
G04 #@! TD*
G04 #@! TA.AperFunction,SMDPad,CuDef*
%ADD33RoundRect,0.250000X-0.350000X0.850000X-0.350000X-0.850000X0.350000X-0.850000X0.350000X0.850000X0*%
G04 #@! TD*
G04 #@! TA.AperFunction,SMDPad,CuDef*
%ADD34RoundRect,0.249997X-2.650003X2.950003X-2.650003X-2.950003X2.650003X-2.950003X2.650003X2.950003X0*%
G04 #@! TD*
G04 #@! TA.AperFunction,SMDPad,CuDef*
%ADD35RoundRect,0.250000X-0.350000X-0.450000X0.350000X-0.450000X0.350000X0.450000X-0.350000X0.450000X0*%
G04 #@! TD*
G04 #@! TA.AperFunction,SMDPad,CuDef*
%ADD36RoundRect,0.237500X0.237500X-0.287500X0.237500X0.287500X-0.237500X0.287500X-0.237500X-0.287500X0*%
G04 #@! TD*
G04 #@! TA.AperFunction,ViaPad*
%ADD37C,0.600000*%
G04 #@! TD*
G04 #@! TA.AperFunction,Conductor*
%ADD38C,0.200000*%
G04 #@! TD*
G04 APERTURE END LIST*
D10*
G04 #@! TO.P,J3,*
G04 #@! TO.N,*
X99350000Y-97405000D03*
X99350000Y-83905000D03*
D11*
G04 #@! TO.P,J3,1,Pin_1*
G04 #@! TO.N,GND*
X105350000Y-94255000D03*
D12*
G04 #@! TO.P,J3,2,Pin_2*
G04 #@! TO.N,Net-(J3-Pin_2)*
X105350000Y-87055000D03*
G04 #@! TD*
D13*
G04 #@! TO.P,J5,1,Pin_1*
G04 #@! TO.N,GND*
X167600000Y-107355000D03*
D14*
G04 #@! TO.P,J5,2,Pin_2*
G04 #@! TO.N,Net-(J5-Pin_2)*
X167600000Y-104855000D03*
G04 #@! TO.P,J5,3,Pin_3*
G04 #@! TO.N,/5V*
X167600000Y-102355000D03*
G04 #@! TD*
D15*
G04 #@! TO.P,R28,1*
G04 #@! TO.N,Net-(U5-+)*
X127750000Y-95962500D03*
G04 #@! TO.P,R28,2*
G04 #@! TO.N,/8V4*
X127750000Y-90037500D03*
G04 #@! TD*
D16*
G04 #@! TO.P,F1,1*
G04 #@! TO.N,Net-(U2-+)*
X113785000Y-81765000D03*
D17*
X110385000Y-81765000D03*
G04 #@! TO.P,F1,2*
G04 #@! TO.N,Net-(J3-Pin_2)*
X113785000Y-95235000D03*
X110385000Y-95235000D03*
G04 #@! TD*
D18*
G04 #@! TO.P,J1,*
G04 #@! TO.N,*
X111250000Y-63850000D03*
X124750000Y-63850000D03*
D19*
G04 #@! TO.P,J1,1,Pin_1*
G04 #@! TO.N,GND*
X114400000Y-69850000D03*
D12*
G04 #@! TO.P,J1,2,Pin_2*
G04 #@! TO.N,/VCC*
X121600000Y-69850000D03*
G04 #@! TD*
D20*
G04 #@! TO.P,R15,1*
G04 #@! TO.N,Net-(U2-+)*
X117137500Y-79200000D03*
G04 #@! TO.P,R15,2*
G04 #@! TO.N,/8V4*
X123062500Y-79200000D03*
G04 #@! TD*
D21*
G04 #@! TO.P,R23,1*
G04 #@! TO.N,Net-(U3-+)*
X142862500Y-74700000D03*
G04 #@! TO.P,R23,2*
G04 #@! TO.N,/8V4*
X136937500Y-74700000D03*
G04 #@! TD*
D10*
G04 #@! TO.P,J4,*
G04 #@! TO.N,*
X160650000Y-83905000D03*
X160650000Y-97405000D03*
D22*
G04 #@! TO.P,J4,1,Pin_1*
G04 #@! TO.N,GND*
X154650000Y-87055000D03*
D12*
G04 #@! TO.P,J4,2,Pin_2*
G04 #@! TO.N,Net-(J4-Pin_2)*
X154650000Y-94255000D03*
G04 #@! TD*
D23*
G04 #@! TO.P,R17,1*
G04 #@! TO.N,/8V4*
X129000000Y-62412500D03*
G04 #@! TO.P,R17,2*
G04 #@! TO.N,Net-(D1-A)*
X129000000Y-60587500D03*
G04 #@! TD*
D24*
G04 #@! TO.P,F3,1*
G04 #@! TO.N,Net-(U5-+)*
X123265000Y-99290000D03*
D25*
X123265000Y-102690000D03*
G04 #@! TO.P,F3,2*
G04 #@! TO.N,Net-(J7-Pin_2)*
X136735000Y-99290000D03*
X136735000Y-102690000D03*
G04 #@! TD*
D20*
G04 #@! TO.P,R19,1*
G04 #@! TO.N,Net-(U2-+)*
X117137500Y-83700000D03*
G04 #@! TO.P,R19,2*
G04 #@! TO.N,/8V4*
X123062500Y-83700000D03*
G04 #@! TD*
D26*
G04 #@! TO.P,J6,1,Pin_1*
G04 #@! TO.N,GND*
X143000000Y-111300000D03*
D27*
G04 #@! TO.P,J6,2,Pin_2*
G04 #@! TO.N,/DATA_TX*
X145500000Y-111300000D03*
G04 #@! TO.P,J6,3,Pin_3*
G04 #@! TO.N,/DATA_RX*
X148000000Y-111300000D03*
G04 #@! TO.P,J6,4,Pin_4*
G04 #@! TO.N,/5V*
X150500000Y-111300000D03*
G04 #@! TD*
D21*
G04 #@! TO.P,R18,1*
G04 #@! TO.N,Net-(U3-+)*
X142862500Y-83700000D03*
G04 #@! TO.P,R18,2*
G04 #@! TO.N,/8V4*
X136937500Y-83700000D03*
G04 #@! TD*
D28*
G04 #@! TO.P,J8,*
G04 #@! TO.N,*
X137900000Y-117400000D03*
X126900000Y-117400000D03*
D29*
G04 #@! TO.P,J8,1,Pin_1*
G04 #@! TO.N,GND*
X129900000Y-107400000D03*
D30*
G04 #@! TO.P,J8,2,Pin_2*
G04 #@! TO.N,Net-(J7-Pin_2)*
X134900000Y-107400000D03*
G04 #@! TD*
D20*
G04 #@! TO.P,R22,1*
G04 #@! TO.N,Net-(U2-+)*
X117137500Y-88200000D03*
G04 #@! TO.P,R22,2*
G04 #@! TO.N,/8V4*
X123062500Y-88200000D03*
G04 #@! TD*
D31*
G04 #@! TO.P,SW1,1,1*
G04 #@! TO.N,Net-(Q2-S)*
X133500000Y-55355000D03*
G04 #@! TO.P,SW1,2,COM*
G04 #@! TO.N,GND*
X132500000Y-55355000D03*
G04 #@! TO.P,SW1,3,3*
G04 #@! TO.N,Net-(R37-Pad1)*
X131500000Y-55355000D03*
D32*
G04 #@! TO.P,SW1,4,4*
G04 #@! TO.N,unconnected-(SW1-Pad4)*
X135500000Y-54000000D03*
G04 #@! TO.P,SW1,5,5*
G04 #@! TO.N,unconnected-(SW1-Pad5)*
X129500000Y-54000000D03*
G04 #@! TD*
D33*
G04 #@! TO.P,Q1,1,G*
G04 #@! TO.N,Net-(Q1-G)*
X132280000Y-69900000D03*
G04 #@! TO.P,Q1,2,D*
G04 #@! TO.N,/8V4*
X130000000Y-69900000D03*
D34*
X130000000Y-76200000D03*
D33*
G04 #@! TO.P,Q1,3,S*
G04 #@! TO.N,/VCC*
X127720000Y-69900000D03*
G04 #@! TD*
D35*
G04 #@! TO.P,TH1,1*
G04 #@! TO.N,Net-(C10-Pad2)*
X129000000Y-80600000D03*
G04 #@! TO.P,TH1,2*
G04 #@! TO.N,GND*
X131000000Y-80600000D03*
G04 #@! TD*
D20*
G04 #@! TO.P,R12,1*
G04 #@! TO.N,Net-(U2-+)*
X117137500Y-74700000D03*
G04 #@! TO.P,R12,2*
G04 #@! TO.N,/8V4*
X123062500Y-74700000D03*
G04 #@! TD*
D16*
G04 #@! TO.P,F2,1*
G04 #@! TO.N,Net-(U3-+)*
X149615000Y-81765000D03*
D17*
X146215000Y-81765000D03*
G04 #@! TO.P,F2,2*
G04 #@! TO.N,Net-(J4-Pin_2)*
X149615000Y-95235000D03*
X146215000Y-95235000D03*
G04 #@! TD*
D21*
G04 #@! TO.P,R13,1*
G04 #@! TO.N,Net-(U3-+)*
X142862500Y-88200000D03*
G04 #@! TO.P,R13,2*
G04 #@! TO.N,/8V4*
X136937500Y-88200000D03*
G04 #@! TD*
D26*
G04 #@! TO.P,J2,1,Pin_1*
G04 #@! TO.N,GND*
X102000000Y-111300000D03*
D27*
G04 #@! TO.P,J2,2,Pin_2*
G04 #@! TO.N,Net-(J2-Pin_2)*
X104500000Y-111300000D03*
G04 #@! TO.P,J2,3,Pin_3*
G04 #@! TO.N,unconnected-(J2-Pin_3-Pad3)*
X107000000Y-111300000D03*
G04 #@! TD*
D36*
G04 #@! TO.P,D1,1,K*
G04 #@! TO.N,GND*
X127500000Y-62375000D03*
G04 #@! TO.P,D1,2,A*
G04 #@! TO.N,Net-(D1-A)*
X127500000Y-60625000D03*
G04 #@! TD*
D21*
G04 #@! TO.P,R21,1*
G04 #@! TO.N,Net-(U3-+)*
X142862500Y-79200000D03*
G04 #@! TO.P,R21,2*
G04 #@! TO.N,/8V4*
X136937500Y-79200000D03*
G04 #@! TD*
D15*
G04 #@! TO.P,R29,1*
G04 #@! TO.N,Net-(U5-+)*
X132250000Y-95962500D03*
G04 #@! TO.P,R29,2*
G04 #@! TO.N,/8V4*
X132250000Y-90037500D03*
G04 #@! TD*
D28*
G04 #@! TO.P,J7,*
G04 #@! TO.N,*
X123100000Y-117400000D03*
X112100000Y-117400000D03*
D29*
G04 #@! TO.P,J7,1,Pin_1*
G04 #@! TO.N,GND*
X115100000Y-107400000D03*
D30*
G04 #@! TO.P,J7,2,Pin_2*
G04 #@! TO.N,Net-(J7-Pin_2)*
X120100000Y-107400000D03*
G04 #@! TD*
D37*
G04 #@! TO.N,/PWR_EN*
X162500000Y-99000000D03*
G04 #@! TO.N,GND*
X131000000Y-80600000D03*
G04 #@! TO.N,/8V4*
X131500000Y-75600000D03*
X139400000Y-81450000D03*
X130000000Y-69900000D03*
X130000000Y-92500000D03*
X120600000Y-81450000D03*
X130000000Y-77100000D03*
X130000000Y-89500000D03*
X131500000Y-77100000D03*
X123500000Y-85950000D03*
X130000000Y-75600000D03*
X128500000Y-75600000D03*
X128500000Y-77100000D03*
X136500000Y-85950000D03*
G04 #@! TO.N,/5V*
X108000000Y-79500000D03*
X102000000Y-79500000D03*
X139500000Y-114500000D03*
X157400000Y-112000000D03*
G04 #@! TO.N,Net-(U2-+)*
X119600000Y-81450000D03*
G04 #@! TO.N,Net-(U3-+)*
X140400000Y-81450000D03*
G04 #@! TO.N,Net-(U5-+)*
X130000000Y-93500000D03*
G04 #@! TO.N,/VCC*
X119000000Y-65500000D03*
X128000000Y-72000000D03*
X128000000Y-65500000D03*
X112000000Y-60000000D03*
X100000000Y-60000000D03*
G04 #@! TO.N,Net-(Q1-G)*
X132280000Y-69900000D03*
G04 #@! TO.N,/PWR_EN*
X139400000Y-68499000D03*
X139360735Y-63709265D03*
X151456250Y-99043750D03*
G04 #@! TO.N,Net-(Q2-S)*
X133500000Y-56000000D03*
X135750000Y-59250000D03*
X140200002Y-68500334D03*
G04 #@! TO.N,/SW_IN*
X164500000Y-101912500D03*
X162500000Y-104087500D03*
G04 #@! TO.N,Net-(C10-Pad2)*
X129000000Y-80600000D03*
G04 #@! TO.N,Net-(R37-Pad1)*
X131500000Y-56000000D03*
G04 #@! TD*
D38*
G04 #@! TO.N,/PWR_EN*
X139400000Y-68499000D02*
X139400000Y-63748530D01*
X139400000Y-63748530D02*
X139360735Y-63709265D01*
G04 #@! TO.N,/8V4*
X137400000Y-83700000D02*
X137400000Y-83450000D01*
X122600000Y-79200000D02*
X122600000Y-79450000D01*
X137400000Y-76200000D02*
X137900000Y-76700000D01*
X123062500Y-79200000D02*
X122600000Y-79200000D01*
X122600000Y-75162500D02*
X122600000Y-76200000D01*
X122600000Y-83700000D02*
X122600000Y-83450000D01*
X139400000Y-80200000D02*
X139400000Y-81450000D01*
X122600000Y-86700000D02*
X122100000Y-86200000D01*
X127750000Y-90250000D02*
X130000000Y-92500000D01*
X122100000Y-86200000D02*
X122100000Y-84200000D01*
X120600000Y-82700000D02*
X120600000Y-81450000D01*
X123062500Y-83700000D02*
X122600000Y-83700000D01*
X120600000Y-80200000D02*
X120600000Y-81450000D01*
X132250000Y-90037500D02*
X132250000Y-90250000D01*
X137400000Y-79200000D02*
X137400000Y-79450000D01*
X122600000Y-79450000D02*
X120600000Y-81450000D01*
X136937500Y-87162500D02*
X137900000Y-86200000D01*
X137900000Y-78700000D02*
X139400000Y-80200000D01*
X136937500Y-74700000D02*
X137400000Y-75162500D01*
X122100000Y-76700000D02*
X122100000Y-78700000D01*
X130000000Y-69900000D02*
X129000000Y-68900000D01*
X137900000Y-86200000D02*
X137900000Y-84200000D01*
X123062500Y-88200000D02*
X122600000Y-87737500D01*
X137400000Y-83450000D02*
X139400000Y-81450000D01*
X122100000Y-84200000D02*
X120600000Y-82700000D01*
X136937500Y-88200000D02*
X136937500Y-87162500D01*
X122600000Y-76200000D02*
X122100000Y-76700000D01*
X122100000Y-78700000D02*
X120600000Y-80200000D01*
X139400000Y-82700000D02*
X139400000Y-81450000D01*
X123062500Y-74700000D02*
X122600000Y-75162500D01*
X137900000Y-84200000D02*
X139400000Y-82700000D01*
X127750000Y-90037500D02*
X127750000Y-90250000D01*
X136937500Y-83700000D02*
X137400000Y-83700000D01*
X137400000Y-79450000D02*
X139400000Y-81450000D01*
X132250000Y-90250000D02*
X130000000Y-92500000D01*
X130000000Y-75600000D02*
X130000000Y-69900000D01*
X137400000Y-75162500D02*
X137400000Y-76200000D01*
X122600000Y-87737500D02*
X122600000Y-86700000D01*
X122600000Y-83450000D02*
X120600000Y-81450000D01*
X129000000Y-68900000D02*
X129000000Y-62412500D01*
X136937500Y-79200000D02*
X137400000Y-79200000D01*
X137900000Y-76700000D02*
X137900000Y-78700000D01*
G04 #@! TO.N,/5V*
X167000000Y-112000000D02*
X157400000Y-112000000D01*
X169500000Y-109500000D02*
X167000000Y-112000000D01*
X139500000Y-114500000D02*
X154900000Y-114500000D01*
X169500000Y-103500000D02*
X169500000Y-109500000D01*
X154900000Y-114500000D02*
X157400000Y-112000000D01*
X167745000Y-102500000D02*
X168500000Y-102500000D01*
X108000000Y-79500000D02*
X102000000Y-79500000D01*
X150500000Y-111300000D02*
X156700000Y-111300000D01*
X156700000Y-111300000D02*
X157400000Y-112000000D01*
X168500000Y-102500000D02*
X169500000Y-103500000D01*
X167600000Y-102355000D02*
X167745000Y-102500000D01*
G04 #@! TO.N,Net-(D1-A)*
X128962500Y-60625000D02*
X129000000Y-60587500D01*
X127500000Y-60625000D02*
X128962500Y-60625000D01*
G04 #@! TO.N,Net-(U2-+)*
X117137500Y-88200000D02*
X117600000Y-87737500D01*
X118100000Y-78700000D02*
X119600000Y-80200000D01*
X117600000Y-75162500D02*
X117600000Y-76200000D01*
X118100000Y-86200000D02*
X118100000Y-84200000D01*
X118100000Y-84200000D02*
X119600000Y-82700000D01*
X117137500Y-83700000D02*
X117600000Y-83700000D01*
X117600000Y-76200000D02*
X118100000Y-76700000D01*
X117600000Y-83700000D02*
X117600000Y-83450000D01*
X119600000Y-82700000D02*
X119600000Y-81450000D01*
X117600000Y-79450000D02*
X119600000Y-81450000D01*
X119600000Y-80200000D02*
X119600000Y-81450000D01*
X117600000Y-79200000D02*
X117600000Y-79450000D01*
X117600000Y-87737500D02*
X117600000Y-86700000D01*
X117137500Y-79200000D02*
X117600000Y-79200000D01*
X117137500Y-74700000D02*
X117600000Y-75162500D01*
X117600000Y-83450000D02*
X119600000Y-81450000D01*
X118100000Y-76700000D02*
X118100000Y-78700000D01*
X117600000Y-86700000D02*
X118100000Y-86200000D01*
G04 #@! TO.N,Net-(U3-+)*
X142862500Y-83700000D02*
X142400000Y-83700000D01*
X142862500Y-75737500D02*
X141900000Y-76700000D01*
X140400000Y-80200000D02*
X140400000Y-81450000D01*
X142400000Y-79200000D02*
X142400000Y-79450000D01*
X142400000Y-87737500D02*
X142400000Y-86700000D01*
X142862500Y-88200000D02*
X142400000Y-87737500D01*
X142400000Y-79450000D02*
X140400000Y-81450000D01*
X142862500Y-79200000D02*
X142400000Y-79200000D01*
X142400000Y-86700000D02*
X141900000Y-86200000D01*
X142400000Y-83450000D02*
X140400000Y-81450000D01*
X142862500Y-74700000D02*
X142862500Y-75737500D01*
X142400000Y-83700000D02*
X142400000Y-83450000D01*
X141900000Y-86200000D02*
X141900000Y-84200000D01*
X141900000Y-76700000D02*
X141900000Y-78700000D01*
X140400000Y-82700000D02*
X140400000Y-81450000D01*
X141900000Y-84200000D02*
X140400000Y-82700000D01*
X141900000Y-78700000D02*
X140400000Y-80200000D01*
G04 #@! TO.N,Net-(U5-+)*
X132250000Y-95750000D02*
X130000000Y-93500000D01*
X127750000Y-95962500D02*
X127750000Y-95750000D01*
X127750000Y-95750000D02*
X130000000Y-93500000D01*
X132250000Y-95962500D02*
X132250000Y-95750000D01*
G04 #@! TO.N,/VCC*
X112000000Y-60000000D02*
X100000000Y-60000000D01*
G04 #@! TO.N,/PWR_EN*
X151456250Y-99043750D02*
X151500000Y-99000000D01*
X151500000Y-99000000D02*
X162500000Y-99000000D01*
G04 #@! TO.N,Net-(Q2-S)*
X140000000Y-68300332D02*
X140000000Y-63500000D01*
X140000000Y-63500000D02*
X135750000Y-59250000D01*
X133500000Y-56000000D02*
X133500000Y-55355000D01*
X140200002Y-68500334D02*
X140000000Y-68300332D01*
G04 #@! TO.N,/SW_IN*
X162500000Y-104087500D02*
X164500000Y-102087500D01*
X164500000Y-102087500D02*
X164500000Y-101912500D01*
G04 #@! TO.N,Net-(R37-Pad1)*
X131500000Y-56000000D02*
X131500000Y-55355000D01*
G04 #@! TD*
G04 #@! TA.AperFunction,Conductor*
G04 #@! TO.N,Net-(J3-Pin_2)*
G36*
X108443039Y-84019685D02*
G01*
X108488794Y-84072489D01*
X108500000Y-84124000D01*
X108500000Y-87000000D01*
X112376000Y-87000000D01*
X112443039Y-87019685D01*
X112488794Y-87072489D01*
X112500000Y-87124000D01*
X112500000Y-90500000D01*
X117376000Y-90500000D01*
X117443039Y-90519685D01*
X117488794Y-90572489D01*
X117500000Y-90624000D01*
X117500000Y-96876000D01*
X117480315Y-96943039D01*
X117427511Y-96988794D01*
X117376000Y-97000000D01*
X108624000Y-97000000D01*
X108556961Y-96980315D01*
X108511206Y-96927511D01*
X108500000Y-96876000D01*
X108500000Y-91500000D01*
X102624000Y-91500000D01*
X102556961Y-91480315D01*
X102511206Y-91427511D01*
X102500000Y-91376000D01*
X102500000Y-84124000D01*
X102519685Y-84056961D01*
X102572489Y-84011206D01*
X102624000Y-84000000D01*
X108376000Y-84000000D01*
X108443039Y-84019685D01*
G37*
G04 #@! TD.AperFunction*
G04 #@! TD*
G04 #@! TA.AperFunction,Conductor*
G04 #@! TO.N,GND*
G36*
X124000000Y-64494670D02*
G01*
X123975500Y-64500000D01*
X118000000Y-64500000D01*
X118000000Y-72376000D01*
X117980315Y-72443039D01*
X117927511Y-72488794D01*
X117876000Y-72500000D01*
X89000000Y-72500000D01*
X89000000Y-62830247D01*
X110599500Y-62830247D01*
X110599500Y-64869752D01*
X110611131Y-64928229D01*
X110611132Y-64928230D01*
X110655447Y-64994552D01*
X110721769Y-65038867D01*
X110721770Y-65038868D01*
X110780247Y-65050499D01*
X110780250Y-65050500D01*
X110780252Y-65050500D01*
X111719750Y-65050500D01*
X111719751Y-65050499D01*
X111734568Y-65047552D01*
X111778229Y-65038868D01*
X111778229Y-65038867D01*
X111778231Y-65038867D01*
X111844552Y-64994552D01*
X111888867Y-64928231D01*
X111888867Y-64928229D01*
X111888868Y-64928229D01*
X111900499Y-64869752D01*
X111900500Y-64869750D01*
X111900500Y-62830249D01*
X111900499Y-62830247D01*
X111888868Y-62771770D01*
X111888867Y-62771769D01*
X111844552Y-62705447D01*
X111778230Y-62661132D01*
X111778229Y-62661131D01*
X111719752Y-62649500D01*
X111719748Y-62649500D01*
X110780252Y-62649500D01*
X110780247Y-62649500D01*
X110721770Y-62661131D01*
X110721769Y-62661132D01*
X110655447Y-62705447D01*
X110611132Y-62771769D01*
X110611131Y-62771770D01*
X110599500Y-62830247D01*
X89000000Y-62830247D01*
X89000000Y-59934108D01*
X99499500Y-59934108D01*
X99499500Y-60065891D01*
X99533608Y-60193187D01*
X99566554Y-60250250D01*
X99599500Y-60307314D01*
X99692686Y-60400500D01*
X99806814Y-60466392D01*
X99934108Y-60500500D01*
X99934110Y-60500500D01*
X100065890Y-60500500D01*
X100065892Y-60500500D01*
X100193186Y-60466392D01*
X100307314Y-60400500D01*
X100370995Y-60336819D01*
X100432318Y-60303334D01*
X100458676Y-60300500D01*
X111541324Y-60300500D01*
X111608363Y-60320185D01*
X111629005Y-60336819D01*
X111692686Y-60400500D01*
X111806814Y-60466392D01*
X111934108Y-60500500D01*
X111934110Y-60500500D01*
X112065890Y-60500500D01*
X112065892Y-60500500D01*
X112193186Y-60466392D01*
X112307314Y-60400500D01*
X112400500Y-60307314D01*
X112466392Y-60193186D01*
X112500500Y-60065892D01*
X112500500Y-59934108D01*
X112466392Y-59806814D01*
X112400500Y-59692686D01*
X112307314Y-59599500D01*
X112250250Y-59566554D01*
X112193187Y-59533608D01*
X112129539Y-59516554D01*
X112065892Y-59499500D01*
X111934108Y-59499500D01*
X111806812Y-59533608D01*
X111692686Y-59599500D01*
X111692683Y-59599502D01*
X111629005Y-59663181D01*
X111567682Y-59696666D01*
X111541324Y-59699500D01*
X100458676Y-59699500D01*
X100391637Y-59679815D01*
X100370995Y-59663181D01*
X100307316Y-59599502D01*
X100307314Y-59599500D01*
X100250250Y-59566554D01*
X100193187Y-59533608D01*
X100129539Y-59516554D01*
X100065892Y-59499500D01*
X99934108Y-59499500D01*
X99806812Y-59533608D01*
X99692686Y-59599500D01*
X99692683Y-59599502D01*
X99599502Y-59692683D01*
X99599500Y-59692686D01*
X99533608Y-59806812D01*
X99499500Y-59934108D01*
X89000000Y-59934108D01*
X89000000Y-56878711D01*
X90649500Y-56878711D01*
X90649500Y-57121288D01*
X90681161Y-57361785D01*
X90743947Y-57596104D01*
X90836773Y-57820205D01*
X90836776Y-57820212D01*
X90958064Y-58030289D01*
X90958066Y-58030292D01*
X90958067Y-58030293D01*
X91105733Y-58222736D01*
X91105739Y-58222743D01*
X91277256Y-58394260D01*
X91277262Y-58394265D01*
X91469711Y-58541936D01*
X91679788Y-58663224D01*
X91903900Y-58756054D01*
X92138211Y-58818838D01*
X92318586Y-58842584D01*
X92378711Y-58850500D01*
X92378712Y-58850500D01*
X92621289Y-58850500D01*
X92669388Y-58844167D01*
X92861789Y-58818838D01*
X93096100Y-58756054D01*
X93320212Y-58663224D01*
X93530289Y-58541936D01*
X93722738Y-58394265D01*
X93894265Y-58222738D01*
X94041936Y-58030289D01*
X94163224Y-57820212D01*
X94256054Y-57596100D01*
X94318838Y-57361789D01*
X94350500Y-57121288D01*
X94350500Y-56878712D01*
X94318838Y-56638211D01*
X94256054Y-56403900D01*
X94163224Y-56179788D01*
X94041936Y-55969711D01*
X93894265Y-55777262D01*
X93894260Y-55777256D01*
X93722743Y-55605739D01*
X93722736Y-55605733D01*
X93530293Y-55458067D01*
X93530292Y-55458066D01*
X93530289Y-55458064D01*
X93320212Y-55336776D01*
X93320205Y-55336773D01*
X93096104Y-55243947D01*
X92861785Y-55181161D01*
X92621289Y-55149500D01*
X92621288Y-55149500D01*
X92378712Y-55149500D01*
X92378711Y-55149500D01*
X92138214Y-55181161D01*
X91903895Y-55243947D01*
X91679794Y-55336773D01*
X91679785Y-55336777D01*
X91469706Y-55458067D01*
X91277263Y-55605733D01*
X91277256Y-55605739D01*
X91105739Y-55777256D01*
X91105733Y-55777263D01*
X90958067Y-55969706D01*
X90836777Y-56179785D01*
X90836773Y-56179794D01*
X90743947Y-56403895D01*
X90681161Y-56638214D01*
X90649500Y-56878711D01*
X89000000Y-56878711D01*
X89000000Y-53624000D01*
X89019685Y-53556961D01*
X89072489Y-53511206D01*
X89124000Y-53500000D01*
X124000000Y-53500000D01*
X124000000Y-64494670D01*
G37*
G04 #@! TD.AperFunction*
G04 #@! TD*
G04 #@! TA.AperFunction,Conductor*
G04 #@! TO.N,Net-(U3-+)*
G36*
X150943039Y-73019685D02*
G01*
X150988794Y-73072489D01*
X151000000Y-73124000D01*
X151000000Y-89876000D01*
X150980315Y-89943039D01*
X150927511Y-89988794D01*
X150876000Y-90000000D01*
X143124000Y-90000000D01*
X143056961Y-89980315D01*
X143011206Y-89927511D01*
X143000000Y-89876000D01*
X143000000Y-73124000D01*
X143019685Y-73056961D01*
X143072489Y-73011206D01*
X143124000Y-73000000D01*
X150876000Y-73000000D01*
X150943039Y-73019685D01*
G37*
G04 #@! TD.AperFunction*
G04 #@! TD*
G04 #@! TA.AperFunction,Conductor*
G04 #@! TO.N,/VCC*
G36*
X124193025Y-65019685D02*
G01*
X124194873Y-65020895D01*
X124221769Y-65038867D01*
X124221772Y-65038867D01*
X124221773Y-65038868D01*
X124280247Y-65050499D01*
X124280250Y-65050500D01*
X124280252Y-65050500D01*
X125219750Y-65050500D01*
X125219751Y-65050499D01*
X125278231Y-65038867D01*
X125305123Y-65020897D01*
X125371801Y-65000020D01*
X125374014Y-65000000D01*
X128376000Y-65000000D01*
X128443039Y-65019685D01*
X128488794Y-65072489D01*
X128500000Y-65124000D01*
X128500000Y-72376000D01*
X128480315Y-72443039D01*
X128427511Y-72488794D01*
X128376000Y-72500000D01*
X118624000Y-72500000D01*
X118556961Y-72480315D01*
X118511206Y-72427511D01*
X118500000Y-72376000D01*
X118500000Y-65124000D01*
X118519685Y-65056961D01*
X118572489Y-65011206D01*
X118624000Y-65000000D01*
X124125986Y-65000000D01*
X124193025Y-65019685D01*
G37*
G04 #@! TD.AperFunction*
G04 #@! TD*
G04 #@! TA.AperFunction,Conductor*
G04 #@! TO.N,Net-(U2-+)*
G36*
X116943039Y-73019685D02*
G01*
X116988794Y-73072489D01*
X117000000Y-73124000D01*
X117000000Y-89876000D01*
X116980315Y-89943039D01*
X116927511Y-89988794D01*
X116876000Y-90000000D01*
X113124000Y-90000000D01*
X113056961Y-89980315D01*
X113011206Y-89927511D01*
X113000000Y-89876000D01*
X113000000Y-86500000D01*
X109124000Y-86500000D01*
X109056961Y-86480315D01*
X109011206Y-86427511D01*
X109000000Y-86376000D01*
X109000000Y-73124000D01*
X109019685Y-73056961D01*
X109072489Y-73011206D01*
X109124000Y-73000000D01*
X116876000Y-73000000D01*
X116943039Y-73019685D01*
G37*
G04 #@! TD.AperFunction*
G04 #@! TD*
G04 #@! TA.AperFunction,Conductor*
G04 #@! TO.N,GND*
G36*
X132443039Y-105519685D02*
G01*
X132488794Y-105572489D01*
X132500000Y-105624000D01*
X132500000Y-110000000D01*
X138376000Y-110000000D01*
X138443039Y-110019685D01*
X138488794Y-110072489D01*
X138500000Y-110124000D01*
X138500000Y-116488254D01*
X138480315Y-116555293D01*
X138427511Y-116601048D01*
X138358353Y-116610992D01*
X138328548Y-116602815D01*
X138162667Y-116534106D01*
X138162658Y-116534103D01*
X137988694Y-116499500D01*
X137988691Y-116499500D01*
X137811309Y-116499500D01*
X137811306Y-116499500D01*
X137637341Y-116534103D01*
X137637332Y-116534106D01*
X137473459Y-116601983D01*
X137473446Y-116601990D01*
X137325965Y-116700535D01*
X137325961Y-116700538D01*
X137200538Y-116825961D01*
X137200535Y-116825965D01*
X137101990Y-116973446D01*
X137101983Y-116973459D01*
X137034106Y-117137332D01*
X137034103Y-117137341D01*
X136999500Y-117311304D01*
X136999500Y-117488695D01*
X137034103Y-117662658D01*
X137034106Y-117662667D01*
X137101983Y-117826540D01*
X137101990Y-117826553D01*
X137200535Y-117974034D01*
X137200538Y-117974038D01*
X137325961Y-118099461D01*
X137325965Y-118099464D01*
X137473446Y-118198009D01*
X137473459Y-118198016D01*
X137596363Y-118248923D01*
X137637334Y-118265894D01*
X137637336Y-118265894D01*
X137637341Y-118265896D01*
X137811304Y-118300499D01*
X137811307Y-118300500D01*
X137811309Y-118300500D01*
X137988693Y-118300500D01*
X137988694Y-118300499D01*
X138046682Y-118288964D01*
X138162658Y-118265896D01*
X138162661Y-118265894D01*
X138162666Y-118265894D01*
X138326547Y-118198013D01*
X138326547Y-118198012D01*
X138328548Y-118197184D01*
X138398017Y-118189715D01*
X138460496Y-118220990D01*
X138496148Y-118281079D01*
X138500000Y-118311745D01*
X138500000Y-120376000D01*
X138480315Y-120443039D01*
X138427511Y-120488794D01*
X138376000Y-120500000D01*
X117500000Y-120500000D01*
X117500000Y-117311304D01*
X122199500Y-117311304D01*
X122199500Y-117488695D01*
X122234103Y-117662658D01*
X122234106Y-117662667D01*
X122301983Y-117826540D01*
X122301990Y-117826553D01*
X122400535Y-117974034D01*
X122400538Y-117974038D01*
X122525961Y-118099461D01*
X122525965Y-118099464D01*
X122673446Y-118198009D01*
X122673459Y-118198016D01*
X122796363Y-118248923D01*
X122837334Y-118265894D01*
X122837336Y-118265894D01*
X122837341Y-118265896D01*
X123011304Y-118300499D01*
X123011307Y-118300500D01*
X123011309Y-118300500D01*
X123188693Y-118300500D01*
X123188694Y-118300499D01*
X123246682Y-118288964D01*
X123362658Y-118265896D01*
X123362661Y-118265894D01*
X123362666Y-118265894D01*
X123526547Y-118198013D01*
X123674035Y-118099464D01*
X123799464Y-117974035D01*
X123898013Y-117826547D01*
X123965894Y-117662666D01*
X124000500Y-117488691D01*
X124000500Y-117311309D01*
X124000500Y-117311306D01*
X124000499Y-117311304D01*
X125999500Y-117311304D01*
X125999500Y-117488695D01*
X126034103Y-117662658D01*
X126034106Y-117662667D01*
X126101983Y-117826540D01*
X126101990Y-117826553D01*
X126200535Y-117974034D01*
X126200538Y-117974038D01*
X126325961Y-118099461D01*
X126325965Y-118099464D01*
X126473446Y-118198009D01*
X126473459Y-118198016D01*
X126596363Y-118248923D01*
X126637334Y-118265894D01*
X126637336Y-118265894D01*
X126637341Y-118265896D01*
X126811304Y-118300499D01*
X126811307Y-118300500D01*
X126811309Y-118300500D01*
X126988693Y-118300500D01*
X126988694Y-118300499D01*
X127046682Y-118288964D01*
X127162658Y-118265896D01*
X127162661Y-118265894D01*
X127162666Y-118265894D01*
X127326547Y-118198013D01*
X127474035Y-118099464D01*
X127599464Y-117974035D01*
X127698013Y-117826547D01*
X127765894Y-117662666D01*
X127800500Y-117488691D01*
X127800500Y-117311309D01*
X127800500Y-117311306D01*
X127800499Y-117311304D01*
X127765896Y-117137341D01*
X127765893Y-117137332D01*
X127698016Y-116973459D01*
X127698009Y-116973446D01*
X127599464Y-116825965D01*
X127599461Y-116825961D01*
X127474038Y-116700538D01*
X127474034Y-116700535D01*
X127326553Y-116601990D01*
X127326540Y-116601983D01*
X127162667Y-116534106D01*
X127162658Y-116534103D01*
X126988694Y-116499500D01*
X126988691Y-116499500D01*
X126811309Y-116499500D01*
X126811306Y-116499500D01*
X126637341Y-116534103D01*
X126637332Y-116534106D01*
X126473459Y-116601983D01*
X126473446Y-116601990D01*
X126325965Y-116700535D01*
X126325961Y-116700538D01*
X126200538Y-116825961D01*
X126200535Y-116825965D01*
X126101990Y-116973446D01*
X126101983Y-116973459D01*
X126034106Y-117137332D01*
X126034103Y-117137341D01*
X125999500Y-117311304D01*
X124000499Y-117311304D01*
X123965896Y-117137341D01*
X123965893Y-117137332D01*
X123898016Y-116973459D01*
X123898009Y-116973446D01*
X123799464Y-116825965D01*
X123799461Y-116825961D01*
X123674038Y-116700538D01*
X123674034Y-116700535D01*
X123526553Y-116601990D01*
X123526540Y-116601983D01*
X123362667Y-116534106D01*
X123362658Y-116534103D01*
X123188694Y-116499500D01*
X123188691Y-116499500D01*
X123011309Y-116499500D01*
X123011306Y-116499500D01*
X122837341Y-116534103D01*
X122837332Y-116534106D01*
X122673459Y-116601983D01*
X122673446Y-116601990D01*
X122525965Y-116700535D01*
X122525961Y-116700538D01*
X122400538Y-116825961D01*
X122400535Y-116825965D01*
X122301990Y-116973446D01*
X122301983Y-116973459D01*
X122234106Y-117137332D01*
X122234103Y-117137341D01*
X122199500Y-117311304D01*
X117500000Y-117311304D01*
X117500000Y-110000000D01*
X128000000Y-110000000D01*
X128000000Y-105624000D01*
X128019685Y-105556961D01*
X128072489Y-105511206D01*
X128124000Y-105500000D01*
X132376000Y-105500000D01*
X132443039Y-105519685D01*
G37*
G04 #@! TD.AperFunction*
G04 #@! TD*
G04 #@! TA.AperFunction,Conductor*
G04 #@! TO.N,Net-(J7-Pin_2)*
G36*
X138443039Y-98019685D02*
G01*
X138488794Y-98072489D01*
X138500000Y-98124000D01*
X138500000Y-109376000D01*
X138480315Y-109443039D01*
X138427511Y-109488794D01*
X138376000Y-109500000D01*
X133124000Y-109500000D01*
X133056961Y-109480315D01*
X133011206Y-109427511D01*
X133000000Y-109376000D01*
X133000000Y-105000000D01*
X127500000Y-105000000D01*
X127500000Y-109376000D01*
X127480315Y-109443039D01*
X127427511Y-109488794D01*
X127376000Y-109500000D01*
X118124000Y-109500000D01*
X118056961Y-109480315D01*
X118011206Y-109427511D01*
X118000000Y-109376000D01*
X118000000Y-104624000D01*
X118019685Y-104556961D01*
X118072489Y-104511206D01*
X118124000Y-104500000D01*
X125500000Y-104500000D01*
X125500000Y-101124000D01*
X125519685Y-101056961D01*
X125572489Y-101011206D01*
X125624000Y-101000000D01*
X134500000Y-101000000D01*
X134500000Y-98124000D01*
X134519685Y-98056961D01*
X134572489Y-98011206D01*
X134624000Y-98000000D01*
X138376000Y-98000000D01*
X138443039Y-98019685D01*
G37*
G04 #@! TD.AperFunction*
G04 #@! TD*
G04 #@! TA.AperFunction,Conductor*
G04 #@! TO.N,GND*
G36*
X128792555Y-53519685D02*
G01*
X128838310Y-53572489D01*
X128846881Y-53624160D01*
X128849500Y-53624160D01*
X128849500Y-54369752D01*
X128861131Y-54428229D01*
X128861132Y-54428230D01*
X128905447Y-54494552D01*
X128971769Y-54538867D01*
X128971770Y-54538868D01*
X129030247Y-54550499D01*
X129030250Y-54550500D01*
X129030252Y-54550500D01*
X129969750Y-54550500D01*
X129969751Y-54550499D01*
X129984568Y-54547552D01*
X130028229Y-54538868D01*
X130028229Y-54538867D01*
X130028231Y-54538867D01*
X130094552Y-54494552D01*
X130138867Y-54428231D01*
X130138867Y-54428229D01*
X130138868Y-54428229D01*
X130150499Y-54369752D01*
X130150500Y-54369750D01*
X130150500Y-53624160D01*
X130153390Y-53624160D01*
X130164016Y-53567673D01*
X130212005Y-53516891D01*
X130274484Y-53500000D01*
X134725516Y-53500000D01*
X134792555Y-53519685D01*
X134838310Y-53572489D01*
X134846881Y-53624160D01*
X134849500Y-53624160D01*
X134849500Y-54369752D01*
X134861131Y-54428229D01*
X134861132Y-54428230D01*
X134905447Y-54494552D01*
X134971769Y-54538867D01*
X134971770Y-54538868D01*
X135030247Y-54550499D01*
X135030250Y-54550500D01*
X135030252Y-54550500D01*
X135969750Y-54550500D01*
X135969751Y-54550499D01*
X135984568Y-54547552D01*
X136028229Y-54538868D01*
X136028229Y-54538867D01*
X136028231Y-54538867D01*
X136094552Y-54494552D01*
X136138867Y-54428231D01*
X136138867Y-54428229D01*
X136138868Y-54428229D01*
X136150499Y-54369752D01*
X136150500Y-54369750D01*
X136150500Y-53624160D01*
X136153390Y-53624160D01*
X136164016Y-53567673D01*
X136212005Y-53516891D01*
X136274484Y-53500000D01*
X170876000Y-53500000D01*
X170943039Y-53519685D01*
X170988794Y-53572489D01*
X171000000Y-53624000D01*
X171000000Y-89876000D01*
X170980315Y-89943039D01*
X170927511Y-89988794D01*
X170876000Y-90000000D01*
X151624000Y-90000000D01*
X151556961Y-89980315D01*
X151511206Y-89927511D01*
X151500000Y-89876000D01*
X151500000Y-83435247D01*
X159449500Y-83435247D01*
X159449500Y-84374752D01*
X159461131Y-84433229D01*
X159461132Y-84433230D01*
X159505447Y-84499552D01*
X159571769Y-84543867D01*
X159571770Y-84543868D01*
X159630247Y-84555499D01*
X159630250Y-84555500D01*
X159630252Y-84555500D01*
X161669750Y-84555500D01*
X161669751Y-84555499D01*
X161684568Y-84552552D01*
X161728229Y-84543868D01*
X161728229Y-84543867D01*
X161728231Y-84543867D01*
X161794552Y-84499552D01*
X161838867Y-84433231D01*
X161838867Y-84433229D01*
X161838868Y-84433229D01*
X161850499Y-84374752D01*
X161850500Y-84374750D01*
X161850500Y-83435249D01*
X161850499Y-83435247D01*
X161838868Y-83376770D01*
X161838867Y-83376769D01*
X161794552Y-83310447D01*
X161728230Y-83266132D01*
X161728229Y-83266131D01*
X161669752Y-83254500D01*
X161669748Y-83254500D01*
X159630252Y-83254500D01*
X159630247Y-83254500D01*
X159571770Y-83266131D01*
X159571769Y-83266132D01*
X159505447Y-83310447D01*
X159461132Y-83376769D01*
X159461131Y-83376770D01*
X159449500Y-83435247D01*
X151500000Y-83435247D01*
X151500000Y-72500000D01*
X130424500Y-72500000D01*
X130357461Y-72480315D01*
X130311706Y-72427511D01*
X130300500Y-72376000D01*
X130300500Y-71323146D01*
X130320185Y-71256107D01*
X130372989Y-71210352D01*
X130412919Y-71199688D01*
X130434699Y-71197646D01*
X130434701Y-71197645D01*
X130434704Y-71197645D01*
X130500991Y-71174449D01*
X130562882Y-71152793D01*
X130672150Y-71072150D01*
X130752793Y-70962882D01*
X130784097Y-70873421D01*
X130797646Y-70834701D01*
X130797646Y-70834699D01*
X130800500Y-70804269D01*
X130800500Y-68995730D01*
X131479500Y-68995730D01*
X131479500Y-70804269D01*
X131482353Y-70834699D01*
X131482353Y-70834701D01*
X131527206Y-70962880D01*
X131527207Y-70962882D01*
X131607850Y-71072150D01*
X131717118Y-71152793D01*
X131759845Y-71167744D01*
X131845299Y-71197646D01*
X131875730Y-71200500D01*
X131875734Y-71200500D01*
X132684270Y-71200500D01*
X132714699Y-71197646D01*
X132714701Y-71197646D01*
X132778790Y-71175219D01*
X132842882Y-71152793D01*
X132952150Y-71072150D01*
X133032793Y-70962882D01*
X133064097Y-70873421D01*
X133077646Y-70834701D01*
X133077646Y-70834699D01*
X133080500Y-70804269D01*
X133080500Y-68995730D01*
X133077646Y-68965300D01*
X133077646Y-68965298D01*
X133043129Y-68866658D01*
X133032793Y-68837118D01*
X132952150Y-68727850D01*
X132842882Y-68647207D01*
X132842880Y-68647206D01*
X132714700Y-68602353D01*
X132684270Y-68599500D01*
X132684266Y-68599500D01*
X131875734Y-68599500D01*
X131875730Y-68599500D01*
X131845300Y-68602353D01*
X131845298Y-68602353D01*
X131717119Y-68647206D01*
X131717117Y-68647207D01*
X131607850Y-68727850D01*
X131527207Y-68837117D01*
X131527206Y-68837119D01*
X131482353Y-68965298D01*
X131482353Y-68965300D01*
X131479500Y-68995730D01*
X130800500Y-68995730D01*
X130797646Y-68965300D01*
X130797646Y-68965298D01*
X130763129Y-68866658D01*
X130752793Y-68837118D01*
X130672150Y-68727850D01*
X130562882Y-68647207D01*
X130562880Y-68647206D01*
X130434700Y-68602353D01*
X130404270Y-68599500D01*
X130404266Y-68599500D01*
X129595734Y-68599500D01*
X129595730Y-68599500D01*
X129565300Y-68602353D01*
X129565298Y-68602354D01*
X129465455Y-68637291D01*
X129395676Y-68640853D01*
X129335049Y-68606125D01*
X129302821Y-68544131D01*
X129300500Y-68520250D01*
X129300500Y-63192477D01*
X129320185Y-63125438D01*
X129372989Y-63079683D01*
X129383522Y-63075444D01*
X129444475Y-63054116D01*
X129550711Y-62975711D01*
X129629116Y-62869475D01*
X129672725Y-62744849D01*
X129675500Y-62715256D01*
X129675500Y-62109744D01*
X129672725Y-62080151D01*
X129629116Y-61955525D01*
X129550711Y-61849289D01*
X129550710Y-61849288D01*
X129444476Y-61770884D01*
X129319848Y-61727274D01*
X129319849Y-61727274D01*
X129290260Y-61724500D01*
X129290256Y-61724500D01*
X128709744Y-61724500D01*
X128709740Y-61724500D01*
X128680150Y-61727274D01*
X128555523Y-61770884D01*
X128449289Y-61849288D01*
X128449288Y-61849289D01*
X128370884Y-61955523D01*
X128327274Y-62080150D01*
X128324500Y-62109739D01*
X128324500Y-62715260D01*
X128327274Y-62744849D01*
X128370884Y-62869476D01*
X128449288Y-62975710D01*
X128449289Y-62975711D01*
X128555525Y-63054116D01*
X128616457Y-63075437D01*
X128673230Y-63116157D01*
X128698978Y-63181109D01*
X128699500Y-63192477D01*
X128699500Y-64376000D01*
X128679815Y-64443039D01*
X128627011Y-64488794D01*
X128575500Y-64500000D01*
X125524500Y-64500000D01*
X125457461Y-64480315D01*
X125411706Y-64427511D01*
X125400500Y-64376000D01*
X125400500Y-62830249D01*
X125400499Y-62830247D01*
X125388868Y-62771770D01*
X125388867Y-62771769D01*
X125344552Y-62705447D01*
X125278230Y-62661132D01*
X125278229Y-62661131D01*
X125219752Y-62649500D01*
X125219748Y-62649500D01*
X124280252Y-62649500D01*
X124280247Y-62649500D01*
X124221770Y-62661131D01*
X124221769Y-62661132D01*
X124155447Y-62705447D01*
X124111132Y-62771769D01*
X124111131Y-62771770D01*
X124099500Y-62830247D01*
X124099500Y-64376000D01*
X124096949Y-64384685D01*
X124098238Y-64393647D01*
X124087259Y-64417687D01*
X124079815Y-64443039D01*
X124072974Y-64448966D01*
X124069213Y-64457203D01*
X124046978Y-64471492D01*
X124027011Y-64488794D01*
X124016496Y-64491081D01*
X124010435Y-64494977D01*
X124000000Y-64496477D01*
X124000000Y-60284739D01*
X126824500Y-60284739D01*
X126824500Y-60965260D01*
X126827274Y-60994849D01*
X126870884Y-61119476D01*
X126949288Y-61225710D01*
X126949289Y-61225711D01*
X127055523Y-61304115D01*
X127055524Y-61304115D01*
X127055525Y-61304116D01*
X127180151Y-61347725D01*
X127180150Y-61347725D01*
X127209740Y-61350500D01*
X127209744Y-61350500D01*
X127790260Y-61350500D01*
X127819849Y-61347725D01*
X127944475Y-61304116D01*
X128050711Y-61225711D01*
X128129116Y-61119475D01*
X128147343Y-61067383D01*
X128188064Y-61010610D01*
X128253016Y-60984862D01*
X128321578Y-60998318D01*
X128363389Y-61038457D01*
X128365366Y-61036999D01*
X128449288Y-61150710D01*
X128449289Y-61150711D01*
X128555523Y-61229115D01*
X128555524Y-61229115D01*
X128555525Y-61229116D01*
X128680151Y-61272725D01*
X128680150Y-61272725D01*
X128709740Y-61275500D01*
X128709744Y-61275500D01*
X129290260Y-61275500D01*
X129319849Y-61272725D01*
X129444475Y-61229116D01*
X129550711Y-61150711D01*
X129629116Y-61044475D01*
X129672725Y-60919849D01*
X129675500Y-60890256D01*
X129675500Y-60284744D01*
X129672725Y-60255151D01*
X129629116Y-60130525D01*
X129550711Y-60024289D01*
X129550710Y-60024288D01*
X129444476Y-59945884D01*
X129319848Y-59902274D01*
X129319849Y-59902274D01*
X129290260Y-59899500D01*
X129290256Y-59899500D01*
X128709744Y-59899500D01*
X128709740Y-59899500D01*
X128680150Y-59902274D01*
X128555523Y-59945884D01*
X128449289Y-60024288D01*
X128449288Y-60024289D01*
X128370885Y-60130522D01*
X128367041Y-60141508D01*
X128326318Y-60198283D01*
X128261365Y-60224029D01*
X128192803Y-60210572D01*
X128142401Y-60162183D01*
X128132959Y-60141508D01*
X128129116Y-60130525D01*
X128050711Y-60024289D01*
X128050710Y-60024288D01*
X127944476Y-59945884D01*
X127819848Y-59902274D01*
X127819849Y-59902274D01*
X127790260Y-59899500D01*
X127790256Y-59899500D01*
X127209744Y-59899500D01*
X127209740Y-59899500D01*
X127180150Y-59902274D01*
X127055523Y-59945884D01*
X126949289Y-60024288D01*
X126949288Y-60024289D01*
X126870884Y-60130523D01*
X126827274Y-60255150D01*
X126824500Y-60284739D01*
X124000000Y-60284739D01*
X124000000Y-59184108D01*
X135249500Y-59184108D01*
X135249500Y-59315892D01*
X135261814Y-59361848D01*
X135283608Y-59443187D01*
X135316554Y-59500250D01*
X135349500Y-59557314D01*
X135442686Y-59650500D01*
X135556814Y-59716392D01*
X135684108Y-59750500D01*
X135684110Y-59750500D01*
X135774167Y-59750500D01*
X135841206Y-59770185D01*
X135861848Y-59786819D01*
X139148600Y-63073571D01*
X139182085Y-63134894D01*
X139177101Y-63204586D01*
X139135229Y-63260519D01*
X139122920Y-63268638D01*
X139053427Y-63308760D01*
X139053418Y-63308767D01*
X138960237Y-63401948D01*
X138960235Y-63401951D01*
X138894343Y-63516077D01*
X138860235Y-63643373D01*
X138860235Y-63775156D01*
X138894343Y-63902452D01*
X138927289Y-63959515D01*
X138960235Y-64016579D01*
X138960237Y-64016581D01*
X139059168Y-64115512D01*
X139057652Y-64117027D01*
X139092187Y-64164319D01*
X139099500Y-64206272D01*
X139099500Y-68040323D01*
X139079815Y-68107362D01*
X139063182Y-68128004D01*
X138999500Y-68191686D01*
X138933608Y-68305812D01*
X138918296Y-68362958D01*
X138899500Y-68433108D01*
X138899500Y-68564892D01*
X138908105Y-68597006D01*
X138933608Y-68692187D01*
X138966554Y-68749250D01*
X138999500Y-68806314D01*
X139092686Y-68899500D01*
X139191521Y-68956563D01*
X139206654Y-68965300D01*
X139206814Y-68965392D01*
X139334108Y-68999500D01*
X139334110Y-68999500D01*
X139465890Y-68999500D01*
X139465892Y-68999500D01*
X139593186Y-68965392D01*
X139707314Y-68899500D01*
X139711650Y-68895163D01*
X139772970Y-68861677D01*
X139842662Y-68866658D01*
X139887015Y-68895161D01*
X139892688Y-68900834D01*
X139959767Y-68939562D01*
X140004503Y-68965391D01*
X140006816Y-68966726D01*
X140134110Y-69000834D01*
X140134112Y-69000834D01*
X140265892Y-69000834D01*
X140265894Y-69000834D01*
X140393188Y-68966726D01*
X140507316Y-68900834D01*
X140600502Y-68807648D01*
X140666394Y-68693520D01*
X140700502Y-68566226D01*
X140700502Y-68434442D01*
X140666394Y-68307148D01*
X140600502Y-68193020D01*
X140507316Y-68099834D01*
X140441423Y-68061790D01*
X140393187Y-68033941D01*
X140393182Y-68033939D01*
X140392393Y-68033728D01*
X140391803Y-68033368D01*
X140385684Y-68030834D01*
X140386079Y-68029878D01*
X140332736Y-67997356D01*
X140302214Y-67934506D01*
X140300500Y-67913957D01*
X140300500Y-63460438D01*
X140297175Y-63448031D01*
X140297174Y-63448026D01*
X140280023Y-63384013D01*
X140265542Y-63358932D01*
X140240460Y-63315489D01*
X136286819Y-59361848D01*
X136253334Y-59300525D01*
X136250500Y-59274167D01*
X136250500Y-59184110D01*
X136250500Y-59184108D01*
X136216392Y-59056814D01*
X136150500Y-58942686D01*
X136057314Y-58849500D01*
X136000250Y-58816554D01*
X135943187Y-58783608D01*
X135879539Y-58766554D01*
X135815892Y-58749500D01*
X135684108Y-58749500D01*
X135556812Y-58783608D01*
X135442686Y-58849500D01*
X135442683Y-58849502D01*
X135349502Y-58942683D01*
X135349500Y-58942686D01*
X135283608Y-59056812D01*
X135249500Y-59184108D01*
X124000000Y-59184108D01*
X124000000Y-56878711D01*
X165649500Y-56878711D01*
X165649500Y-57121288D01*
X165681161Y-57361785D01*
X165743947Y-57596104D01*
X165836773Y-57820205D01*
X165836776Y-57820212D01*
X165958064Y-58030289D01*
X165958066Y-58030292D01*
X165958067Y-58030293D01*
X166105733Y-58222736D01*
X166105739Y-58222743D01*
X166277256Y-58394260D01*
X166277262Y-58394265D01*
X166469711Y-58541936D01*
X166679788Y-58663224D01*
X166903900Y-58756054D01*
X167138211Y-58818838D01*
X167318586Y-58842584D01*
X167378711Y-58850500D01*
X167378712Y-58850500D01*
X167621289Y-58850500D01*
X167669388Y-58844167D01*
X167861789Y-58818838D01*
X168096100Y-58756054D01*
X168320212Y-58663224D01*
X168530289Y-58541936D01*
X168722738Y-58394265D01*
X168894265Y-58222738D01*
X169041936Y-58030289D01*
X169163224Y-57820212D01*
X169256054Y-57596100D01*
X169318838Y-57361789D01*
X169350500Y-57121288D01*
X169350500Y-56878712D01*
X169318838Y-56638211D01*
X169256054Y-56403900D01*
X169163224Y-56179788D01*
X169041936Y-55969711D01*
X168894265Y-55777262D01*
X168894260Y-55777256D01*
X168722743Y-55605739D01*
X168722736Y-55605733D01*
X168530293Y-55458067D01*
X168530292Y-55458066D01*
X168530289Y-55458064D01*
X168320212Y-55336776D01*
X168320205Y-55336773D01*
X168096104Y-55243947D01*
X167861785Y-55181161D01*
X167621289Y-55149500D01*
X167621288Y-55149500D01*
X167378712Y-55149500D01*
X167378711Y-55149500D01*
X167138214Y-55181161D01*
X166903895Y-55243947D01*
X166679794Y-55336773D01*
X166679785Y-55336777D01*
X166469706Y-55458067D01*
X166277263Y-55605733D01*
X166277256Y-55605739D01*
X166105739Y-55777256D01*
X166105733Y-55777263D01*
X165958067Y-55969706D01*
X165836777Y-56179785D01*
X165836773Y-56179794D01*
X165743947Y-56403895D01*
X165681161Y-56638214D01*
X165649500Y-56878711D01*
X124000000Y-56878711D01*
X124000000Y-55080247D01*
X130999500Y-55080247D01*
X130999500Y-55629752D01*
X131011131Y-55688228D01*
X131011132Y-55688230D01*
X131011133Y-55688231D01*
X131018640Y-55699466D01*
X131039518Y-55766142D01*
X131035313Y-55800450D01*
X130999500Y-55934108D01*
X130999500Y-56065891D01*
X131033608Y-56193187D01*
X131066554Y-56250250D01*
X131099500Y-56307314D01*
X131192686Y-56400500D01*
X131306814Y-56466392D01*
X131434108Y-56500500D01*
X131434110Y-56500500D01*
X131565890Y-56500500D01*
X131565892Y-56500500D01*
X131693186Y-56466392D01*
X131807314Y-56400500D01*
X131900500Y-56307314D01*
X131966392Y-56193186D01*
X132000500Y-56065892D01*
X132000500Y-55934108D01*
X131966392Y-55806814D01*
X131966390Y-55806810D01*
X131964686Y-55800451D01*
X131966349Y-55730601D01*
X131981360Y-55699465D01*
X131988867Y-55688231D01*
X131988867Y-55688229D01*
X131988868Y-55688229D01*
X132000499Y-55629752D01*
X132000500Y-55629750D01*
X132000500Y-55080249D01*
X132000499Y-55080247D01*
X132999500Y-55080247D01*
X132999500Y-55629752D01*
X133011131Y-55688228D01*
X133011132Y-55688230D01*
X133011133Y-55688231D01*
X133018640Y-55699466D01*
X133039518Y-55766142D01*
X133035313Y-55800450D01*
X132999500Y-55934108D01*
X132999500Y-56065891D01*
X133033608Y-56193187D01*
X133066554Y-56250250D01*
X133099500Y-56307314D01*
X133192686Y-56400500D01*
X133306814Y-56466392D01*
X133434108Y-56500500D01*
X133434110Y-56500500D01*
X133565890Y-56500500D01*
X133565892Y-56500500D01*
X133693186Y-56466392D01*
X133807314Y-56400500D01*
X133900500Y-56307314D01*
X133966392Y-56193186D01*
X134000500Y-56065892D01*
X134000500Y-55934108D01*
X133966392Y-55806814D01*
X133966390Y-55806810D01*
X133964686Y-55800451D01*
X133966349Y-55730601D01*
X133981360Y-55699465D01*
X133988867Y-55688231D01*
X133988867Y-55688229D01*
X133988868Y-55688229D01*
X134000499Y-55629752D01*
X134000500Y-55629750D01*
X134000500Y-55080249D01*
X134000499Y-55080247D01*
X133988868Y-55021770D01*
X133988867Y-55021769D01*
X133944552Y-54955447D01*
X133878230Y-54911132D01*
X133878229Y-54911131D01*
X133819752Y-54899500D01*
X133819748Y-54899500D01*
X133180252Y-54899500D01*
X133180247Y-54899500D01*
X133121770Y-54911131D01*
X133121769Y-54911132D01*
X133055447Y-54955447D01*
X133011132Y-55021769D01*
X133011131Y-55021770D01*
X132999500Y-55080247D01*
X132000499Y-55080247D01*
X131988868Y-55021770D01*
X131988867Y-55021769D01*
X131944552Y-54955447D01*
X131878230Y-54911132D01*
X131878229Y-54911131D01*
X131819752Y-54899500D01*
X131819748Y-54899500D01*
X131180252Y-54899500D01*
X131180247Y-54899500D01*
X131121770Y-54911131D01*
X131121769Y-54911132D01*
X131055447Y-54955447D01*
X131011132Y-55021769D01*
X131011131Y-55021770D01*
X130999500Y-55080247D01*
X124000000Y-55080247D01*
X124000000Y-53500000D01*
X128725516Y-53500000D01*
X128792555Y-53519685D01*
G37*
G04 #@! TD.AperFunction*
G04 #@! TD*
G04 #@! TA.AperFunction,Conductor*
G04 #@! TO.N,GND*
G36*
X108500000Y-78995973D02*
G01*
X108480315Y-79063012D01*
X108427511Y-79108767D01*
X108358353Y-79118711D01*
X108314000Y-79103360D01*
X108193188Y-79033609D01*
X108193187Y-79033608D01*
X108193186Y-79033608D01*
X108065892Y-78999500D01*
X107934108Y-78999500D01*
X107806812Y-79033608D01*
X107692686Y-79099500D01*
X107692683Y-79099502D01*
X107629005Y-79163181D01*
X107567682Y-79196666D01*
X107541324Y-79199500D01*
X102458676Y-79199500D01*
X102391637Y-79179815D01*
X102370995Y-79163181D01*
X102307316Y-79099502D01*
X102307314Y-79099500D01*
X102244115Y-79063012D01*
X102193187Y-79033608D01*
X102129539Y-79016554D01*
X102065892Y-78999500D01*
X101934108Y-78999500D01*
X101806812Y-79033608D01*
X101692686Y-79099500D01*
X101692683Y-79099502D01*
X101599502Y-79192683D01*
X101599500Y-79192686D01*
X101533608Y-79306812D01*
X101499500Y-79434108D01*
X101499500Y-79565891D01*
X101533608Y-79693187D01*
X101566554Y-79750250D01*
X101599500Y-79807314D01*
X101692686Y-79900500D01*
X101806814Y-79966392D01*
X101934108Y-80000500D01*
X101934110Y-80000500D01*
X102065890Y-80000500D01*
X102065892Y-80000500D01*
X102193186Y-79966392D01*
X102307314Y-79900500D01*
X102370995Y-79836819D01*
X102432318Y-79803334D01*
X102458676Y-79800500D01*
X107541324Y-79800500D01*
X107608363Y-79820185D01*
X107629005Y-79836819D01*
X107692686Y-79900500D01*
X107806814Y-79966392D01*
X107934108Y-80000500D01*
X107934110Y-80000500D01*
X108065890Y-80000500D01*
X108065892Y-80000500D01*
X108193186Y-79966392D01*
X108307314Y-79900500D01*
X108307317Y-79900496D01*
X108313999Y-79896639D01*
X108381899Y-79880166D01*
X108447926Y-79903018D01*
X108491117Y-79957939D01*
X108500000Y-80004026D01*
X108500000Y-83376000D01*
X108480315Y-83443039D01*
X108427511Y-83488794D01*
X108376000Y-83500000D01*
X102000000Y-83500000D01*
X102000000Y-92000000D01*
X107876000Y-92000000D01*
X107943039Y-92019685D01*
X107988794Y-92072489D01*
X108000000Y-92124000D01*
X108000000Y-97500000D01*
X117376000Y-97500000D01*
X117443039Y-97519685D01*
X117488794Y-97572489D01*
X117500000Y-97624000D01*
X117500000Y-120500000D01*
X89124000Y-120500000D01*
X89056961Y-120480315D01*
X89011206Y-120427511D01*
X89000000Y-120376000D01*
X89000000Y-116878711D01*
X90649500Y-116878711D01*
X90649500Y-117121288D01*
X90681161Y-117361785D01*
X90743947Y-117596104D01*
X90836773Y-117820205D01*
X90836777Y-117820214D01*
X90840437Y-117826553D01*
X90958064Y-118030289D01*
X90958066Y-118030292D01*
X90958067Y-118030293D01*
X91105733Y-118222736D01*
X91105739Y-118222743D01*
X91277256Y-118394260D01*
X91277262Y-118394265D01*
X91469711Y-118541936D01*
X91679788Y-118663224D01*
X91903900Y-118756054D01*
X92138211Y-118818838D01*
X92318586Y-118842584D01*
X92378711Y-118850500D01*
X92378712Y-118850500D01*
X92621289Y-118850500D01*
X92669388Y-118844167D01*
X92861789Y-118818838D01*
X93096100Y-118756054D01*
X93320212Y-118663224D01*
X93530289Y-118541936D01*
X93722738Y-118394265D01*
X93894265Y-118222738D01*
X94041936Y-118030289D01*
X94163224Y-117820212D01*
X94256054Y-117596100D01*
X94318838Y-117361789D01*
X94325484Y-117311304D01*
X111199500Y-117311304D01*
X111199500Y-117488695D01*
X111234103Y-117662658D01*
X111234106Y-117662667D01*
X111301983Y-117826540D01*
X111301990Y-117826553D01*
X111400535Y-117974034D01*
X111400538Y-117974038D01*
X111525961Y-118099461D01*
X111525965Y-118099464D01*
X111673446Y-118198009D01*
X111673459Y-118198016D01*
X111733157Y-118222743D01*
X111837334Y-118265894D01*
X111837336Y-118265894D01*
X111837341Y-118265896D01*
X112011304Y-118300499D01*
X112011307Y-118300500D01*
X112011309Y-118300500D01*
X112188693Y-118300500D01*
X112188694Y-118300499D01*
X112246682Y-118288964D01*
X112362658Y-118265896D01*
X112362661Y-118265894D01*
X112362666Y-118265894D01*
X112526547Y-118198013D01*
X112674035Y-118099464D01*
X112799464Y-117974035D01*
X112898013Y-117826547D01*
X112965894Y-117662666D01*
X113000500Y-117488691D01*
X113000500Y-117311309D01*
X113000500Y-117311306D01*
X113000499Y-117311304D01*
X112965896Y-117137341D01*
X112965893Y-117137332D01*
X112959247Y-117121288D01*
X112948923Y-117096363D01*
X112898016Y-116973459D01*
X112898009Y-116973446D01*
X112799464Y-116825965D01*
X112799461Y-116825961D01*
X112674038Y-116700538D01*
X112674034Y-116700535D01*
X112526553Y-116601990D01*
X112526540Y-116601983D01*
X112362667Y-116534106D01*
X112362658Y-116534103D01*
X112188694Y-116499500D01*
X112188691Y-116499500D01*
X112011309Y-116499500D01*
X112011306Y-116499500D01*
X111837341Y-116534103D01*
X111837332Y-116534106D01*
X111673459Y-116601983D01*
X111673446Y-116601990D01*
X111525965Y-116700535D01*
X111525961Y-116700538D01*
X111400538Y-116825961D01*
X111400535Y-116825965D01*
X111301990Y-116973446D01*
X111301983Y-116973459D01*
X111234106Y-117137332D01*
X111234103Y-117137341D01*
X111199500Y-117311304D01*
X94325484Y-117311304D01*
X94350500Y-117121288D01*
X94350500Y-116878712D01*
X94318838Y-116638211D01*
X94256054Y-116403900D01*
X94163224Y-116179788D01*
X94041936Y-115969711D01*
X93894265Y-115777262D01*
X93894260Y-115777256D01*
X93722743Y-115605739D01*
X93722736Y-115605733D01*
X93530293Y-115458067D01*
X93530292Y-115458066D01*
X93530289Y-115458064D01*
X93320212Y-115336776D01*
X93320205Y-115336773D01*
X93096104Y-115243947D01*
X92861785Y-115181161D01*
X92621289Y-115149500D01*
X92621288Y-115149500D01*
X92378712Y-115149500D01*
X92378711Y-115149500D01*
X92138214Y-115181161D01*
X91903895Y-115243947D01*
X91679794Y-115336773D01*
X91679785Y-115336777D01*
X91469706Y-115458067D01*
X91277263Y-115605733D01*
X91277256Y-115605739D01*
X91105739Y-115777256D01*
X91105733Y-115777263D01*
X90958067Y-115969706D01*
X90836777Y-116179785D01*
X90836773Y-116179794D01*
X90743947Y-116403895D01*
X90681161Y-116638214D01*
X90649500Y-116878711D01*
X89000000Y-116878711D01*
X89000000Y-110825033D01*
X100650000Y-110825033D01*
X100650000Y-111774966D01*
X100650476Y-111818635D01*
X100650476Y-111818641D01*
X100658083Y-111905590D01*
X100673238Y-111991537D01*
X100673241Y-111991550D01*
X100695824Y-112075834D01*
X100695825Y-112075837D01*
X100695827Y-112075845D01*
X100695829Y-112075849D01*
X100707905Y-112109029D01*
X100725674Y-112157851D01*
X100725675Y-112157854D01*
X100725680Y-112157866D01*
X100762567Y-112236969D01*
X100806207Y-112312556D01*
X100806211Y-112312562D01*
X100806218Y-112312573D01*
X100856269Y-112384053D01*
X100896820Y-112432379D01*
X100912371Y-112450912D01*
X100974088Y-112512629D01*
X101001886Y-112535954D01*
X101040946Y-112568730D01*
X101112426Y-112618781D01*
X101112433Y-112618785D01*
X101112444Y-112618793D01*
X101188031Y-112662433D01*
X101267134Y-112699320D01*
X101349151Y-112729171D01*
X101349161Y-112729173D01*
X101349162Y-112729174D01*
X101349165Y-112729175D01*
X101368131Y-112734256D01*
X101433457Y-112751761D01*
X101519412Y-112766917D01*
X101606360Y-112774524D01*
X101650000Y-112775000D01*
X101650034Y-112775000D01*
X102349966Y-112775000D01*
X102350000Y-112775000D01*
X102393640Y-112774524D01*
X102480588Y-112766917D01*
X102566543Y-112751761D01*
X102650849Y-112729171D01*
X102732866Y-112699320D01*
X102811969Y-112662433D01*
X102887556Y-112618793D01*
X102959052Y-112568731D01*
X103025912Y-112512629D01*
X103087629Y-112450912D01*
X103143731Y-112384052D01*
X103193793Y-112312556D01*
X103237433Y-112236969D01*
X103274320Y-112157866D01*
X103304171Y-112075849D01*
X103326761Y-111991543D01*
X103333760Y-111951847D01*
X103364786Y-111889245D01*
X103424733Y-111853354D01*
X103494567Y-111855570D01*
X103552117Y-111895190D01*
X103565477Y-111917602D01*
X103566186Y-111917224D01*
X103569055Y-111922592D01*
X103684024Y-112094657D01*
X103830342Y-112240975D01*
X103830345Y-112240977D01*
X104002402Y-112355941D01*
X104193580Y-112435130D01*
X104396530Y-112475499D01*
X104396534Y-112475500D01*
X104396535Y-112475500D01*
X104603466Y-112475500D01*
X104603467Y-112475499D01*
X104806420Y-112435130D01*
X104997598Y-112355941D01*
X105169655Y-112240977D01*
X105315977Y-112094655D01*
X105430941Y-111922598D01*
X105510130Y-111731420D01*
X105550500Y-111528465D01*
X105550500Y-111071535D01*
X105550499Y-111071530D01*
X105949500Y-111071530D01*
X105949500Y-111528469D01*
X105989868Y-111731412D01*
X105989870Y-111731420D01*
X106069058Y-111922596D01*
X106184024Y-112094657D01*
X106330342Y-112240975D01*
X106330345Y-112240977D01*
X106502402Y-112355941D01*
X106693580Y-112435130D01*
X106896530Y-112475499D01*
X106896534Y-112475500D01*
X106896535Y-112475500D01*
X107103466Y-112475500D01*
X107103467Y-112475499D01*
X107306420Y-112435130D01*
X107497598Y-112355941D01*
X107669655Y-112240977D01*
X107815977Y-112094655D01*
X107930941Y-111922598D01*
X108010130Y-111731420D01*
X108050500Y-111528465D01*
X108050500Y-111071535D01*
X108010130Y-110868580D01*
X107930941Y-110677402D01*
X107815977Y-110505345D01*
X107815975Y-110505342D01*
X107669657Y-110359024D01*
X107562502Y-110287426D01*
X107497598Y-110244059D01*
X107429732Y-110215948D01*
X107306420Y-110164870D01*
X107306412Y-110164868D01*
X107103469Y-110124500D01*
X107103465Y-110124500D01*
X106896535Y-110124500D01*
X106896530Y-110124500D01*
X106693587Y-110164868D01*
X106693579Y-110164870D01*
X106502403Y-110244058D01*
X106330342Y-110359024D01*
X106184024Y-110505342D01*
X106069058Y-110677403D01*
X105989870Y-110868579D01*
X105989868Y-110868587D01*
X105949500Y-111071530D01*
X105550499Y-111071530D01*
X105510130Y-110868580D01*
X105430941Y-110677402D01*
X105315977Y-110505345D01*
X105315975Y-110505342D01*
X105169657Y-110359024D01*
X105062502Y-110287426D01*
X104997598Y-110244059D01*
X104929732Y-110215948D01*
X104806420Y-110164870D01*
X104806412Y-110164868D01*
X104603469Y-110124500D01*
X104603465Y-110124500D01*
X104396535Y-110124500D01*
X104396530Y-110124500D01*
X104193587Y-110164868D01*
X104193579Y-110164870D01*
X104002403Y-110244058D01*
X103830342Y-110359024D01*
X103684024Y-110505342D01*
X103569055Y-110677407D01*
X103566186Y-110682776D01*
X103564260Y-110681746D01*
X103526569Y-110728495D01*
X103460269Y-110750542D01*
X103392574Y-110733245D01*
X103344977Y-110682095D01*
X103333760Y-110648152D01*
X103326762Y-110608465D01*
X103326761Y-110608457D01*
X103304171Y-110524151D01*
X103274320Y-110442134D01*
X103237433Y-110363031D01*
X103193793Y-110287444D01*
X103193785Y-110287433D01*
X103193781Y-110287426D01*
X103143730Y-110215946D01*
X103110954Y-110176886D01*
X103087629Y-110149088D01*
X103025912Y-110087371D01*
X103007379Y-110071820D01*
X102959053Y-110031269D01*
X102887573Y-109981218D01*
X102887562Y-109981211D01*
X102887556Y-109981207D01*
X102860449Y-109965557D01*
X102811980Y-109937573D01*
X102811976Y-109937571D01*
X102811969Y-109937567D01*
X102732866Y-109900680D01*
X102732854Y-109900675D01*
X102732851Y-109900674D01*
X102684029Y-109882905D01*
X102650849Y-109870829D01*
X102650845Y-109870827D01*
X102650837Y-109870825D01*
X102650834Y-109870824D01*
X102566550Y-109848241D01*
X102566553Y-109848241D01*
X102566543Y-109848239D01*
X102554407Y-109846099D01*
X102480590Y-109833083D01*
X102437114Y-109829279D01*
X102393640Y-109825476D01*
X102350000Y-109825000D01*
X101650000Y-109825000D01*
X101606360Y-109825476D01*
X101606358Y-109825476D01*
X101519409Y-109833083D01*
X101433462Y-109848238D01*
X101433459Y-109848238D01*
X101433457Y-109848239D01*
X101433452Y-109848240D01*
X101433449Y-109848241D01*
X101349165Y-109870824D01*
X101349162Y-109870825D01*
X101267148Y-109900674D01*
X101267141Y-109900677D01*
X101267134Y-109900680D01*
X101188031Y-109937567D01*
X101188027Y-109937569D01*
X101188019Y-109937573D01*
X101112452Y-109981202D01*
X101112426Y-109981218D01*
X101040946Y-110031269D01*
X100974085Y-110087373D01*
X100912373Y-110149085D01*
X100856269Y-110215946D01*
X100806218Y-110287426D01*
X100806202Y-110287452D01*
X100762573Y-110363019D01*
X100762569Y-110363027D01*
X100762567Y-110363031D01*
X100725680Y-110442134D01*
X100725677Y-110442141D01*
X100725677Y-110442142D01*
X100725674Y-110442148D01*
X100695825Y-110524162D01*
X100695824Y-110524165D01*
X100673241Y-110608449D01*
X100673238Y-110608462D01*
X100658083Y-110694409D01*
X100650476Y-110781358D01*
X100650476Y-110781364D01*
X100650000Y-110825033D01*
X89000000Y-110825033D01*
X89000000Y-96935247D01*
X98149500Y-96935247D01*
X98149500Y-97874752D01*
X98161131Y-97933229D01*
X98161132Y-97933230D01*
X98205447Y-97999552D01*
X98271769Y-98043867D01*
X98271770Y-98043868D01*
X98330247Y-98055499D01*
X98330250Y-98055500D01*
X98330252Y-98055500D01*
X100369750Y-98055500D01*
X100369751Y-98055499D01*
X100384568Y-98052552D01*
X100428229Y-98043868D01*
X100428229Y-98043867D01*
X100428231Y-98043867D01*
X100494552Y-97999552D01*
X100538867Y-97933231D01*
X100538867Y-97933229D01*
X100538868Y-97933229D01*
X100550499Y-97874752D01*
X100550500Y-97874750D01*
X100550500Y-96935249D01*
X100550499Y-96935247D01*
X100538868Y-96876770D01*
X100538867Y-96876769D01*
X100494552Y-96810447D01*
X100428230Y-96766132D01*
X100428229Y-96766131D01*
X100369752Y-96754500D01*
X100369748Y-96754500D01*
X98330252Y-96754500D01*
X98330247Y-96754500D01*
X98271770Y-96766131D01*
X98271769Y-96766132D01*
X98205447Y-96810447D01*
X98161132Y-96876769D01*
X98161131Y-96876770D01*
X98149500Y-96935247D01*
X89000000Y-96935247D01*
X89000000Y-83435247D01*
X98149500Y-83435247D01*
X98149500Y-84374752D01*
X98161131Y-84433229D01*
X98161132Y-84433230D01*
X98205447Y-84499552D01*
X98271769Y-84543867D01*
X98271770Y-84543868D01*
X98330247Y-84555499D01*
X98330250Y-84555500D01*
X98330252Y-84555500D01*
X100369750Y-84555500D01*
X100369751Y-84555499D01*
X100384568Y-84552552D01*
X100428229Y-84543868D01*
X100428229Y-84543867D01*
X100428231Y-84543867D01*
X100494552Y-84499552D01*
X100538867Y-84433231D01*
X100538867Y-84433229D01*
X100538868Y-84433229D01*
X100550499Y-84374752D01*
X100550500Y-84374750D01*
X100550500Y-83435249D01*
X100550499Y-83435247D01*
X100538868Y-83376770D01*
X100538867Y-83376769D01*
X100494552Y-83310447D01*
X100428230Y-83266132D01*
X100428229Y-83266131D01*
X100369752Y-83254500D01*
X100369748Y-83254500D01*
X98330252Y-83254500D01*
X98330247Y-83254500D01*
X98271770Y-83266131D01*
X98271769Y-83266132D01*
X98205447Y-83310447D01*
X98161132Y-83376769D01*
X98161131Y-83376770D01*
X98149500Y-83435247D01*
X89000000Y-83435247D01*
X89000000Y-72500000D01*
X108500000Y-72500000D01*
X108500000Y-78995973D01*
G37*
G04 #@! TD.AperFunction*
G04 #@! TD*
G04 #@! TA.AperFunction,Conductor*
G04 #@! TO.N,/8V4*
G36*
X136943039Y-73019685D02*
G01*
X136988794Y-73072489D01*
X137000000Y-73124000D01*
X137000000Y-89876000D01*
X136980315Y-89943039D01*
X136927511Y-89988794D01*
X136876000Y-90000000D01*
X123124000Y-90000000D01*
X123056961Y-89980315D01*
X123011206Y-89927511D01*
X123000000Y-89876000D01*
X123000000Y-80095730D01*
X128199500Y-80095730D01*
X128199500Y-81104269D01*
X128202353Y-81134699D01*
X128202353Y-81134701D01*
X128247206Y-81262880D01*
X128247207Y-81262882D01*
X128327850Y-81372150D01*
X128437118Y-81452793D01*
X128479845Y-81467744D01*
X128565299Y-81497646D01*
X128595730Y-81500500D01*
X128595734Y-81500500D01*
X129404270Y-81500500D01*
X129434699Y-81497646D01*
X129434701Y-81497646D01*
X129498790Y-81475219D01*
X129562882Y-81452793D01*
X129672150Y-81372150D01*
X129752793Y-81262882D01*
X129775219Y-81198790D01*
X129797646Y-81134701D01*
X129797646Y-81134699D01*
X129800500Y-81104269D01*
X129800500Y-80095730D01*
X130199500Y-80095730D01*
X130199500Y-81104269D01*
X130202353Y-81134699D01*
X130202353Y-81134701D01*
X130247206Y-81262880D01*
X130247207Y-81262882D01*
X130327850Y-81372150D01*
X130437118Y-81452793D01*
X130479845Y-81467744D01*
X130565299Y-81497646D01*
X130595730Y-81500500D01*
X130595734Y-81500500D01*
X131404270Y-81500500D01*
X131434699Y-81497646D01*
X131434701Y-81497646D01*
X131498790Y-81475219D01*
X131562882Y-81452793D01*
X131672150Y-81372150D01*
X131752793Y-81262882D01*
X131775219Y-81198790D01*
X131797646Y-81134701D01*
X131797646Y-81134699D01*
X131800500Y-81104269D01*
X131800500Y-80095730D01*
X131797646Y-80065300D01*
X131797646Y-80065298D01*
X131752793Y-79937119D01*
X131752792Y-79937117D01*
X131672150Y-79827850D01*
X131562882Y-79747207D01*
X131562880Y-79747206D01*
X131434700Y-79702353D01*
X131404270Y-79699500D01*
X131404266Y-79699500D01*
X130595734Y-79699500D01*
X130595730Y-79699500D01*
X130565300Y-79702353D01*
X130565298Y-79702353D01*
X130437119Y-79747206D01*
X130437117Y-79747207D01*
X130327850Y-79827850D01*
X130247207Y-79937117D01*
X130247206Y-79937119D01*
X130202353Y-80065298D01*
X130202353Y-80065300D01*
X130199500Y-80095730D01*
X129800500Y-80095730D01*
X129797646Y-80065300D01*
X129797646Y-80065298D01*
X129752793Y-79937119D01*
X129752792Y-79937117D01*
X129672150Y-79827850D01*
X129562882Y-79747207D01*
X129562880Y-79747206D01*
X129434700Y-79702353D01*
X129404270Y-79699500D01*
X129404266Y-79699500D01*
X128595734Y-79699500D01*
X128595730Y-79699500D01*
X128565300Y-79702353D01*
X128565298Y-79702353D01*
X128437119Y-79747206D01*
X128437117Y-79747207D01*
X128327850Y-79827850D01*
X128247207Y-79937117D01*
X128247206Y-79937119D01*
X128202353Y-80065298D01*
X128202353Y-80065300D01*
X128199500Y-80095730D01*
X123000000Y-80095730D01*
X123000000Y-73124000D01*
X123019685Y-73056961D01*
X123072489Y-73011206D01*
X123124000Y-73000000D01*
X136876000Y-73000000D01*
X136943039Y-73019685D01*
G37*
G04 #@! TD.AperFunction*
G04 #@! TD*
G04 #@! TA.AperFunction,Conductor*
G04 #@! TO.N,Net-(U5-+)*
G36*
X133943039Y-96019685D02*
G01*
X133988794Y-96072489D01*
X134000000Y-96124000D01*
X134000000Y-100376000D01*
X133980315Y-100443039D01*
X133927511Y-100488794D01*
X133876000Y-100500000D01*
X125000000Y-100500000D01*
X125000000Y-103876000D01*
X124980315Y-103943039D01*
X124927511Y-103988794D01*
X124876000Y-104000000D01*
X118124000Y-104000000D01*
X118056961Y-103980315D01*
X118011206Y-103927511D01*
X118000000Y-103876000D01*
X118000000Y-96124000D01*
X118019685Y-96056961D01*
X118072489Y-96011206D01*
X118124000Y-96000000D01*
X133876000Y-96000000D01*
X133943039Y-96019685D01*
G37*
G04 #@! TD.AperFunction*
G04 #@! TD*
G04 #@! TA.AperFunction,Conductor*
G04 #@! TO.N,Net-(J4-Pin_2)*
G36*
X156943039Y-90519685D02*
G01*
X156988794Y-90572489D01*
X157000000Y-90624000D01*
X157000000Y-96876000D01*
X156980315Y-96943039D01*
X156927511Y-96988794D01*
X156876000Y-97000000D01*
X143124000Y-97000000D01*
X143056961Y-96980315D01*
X143011206Y-96927511D01*
X143000000Y-96876000D01*
X143000000Y-90624000D01*
X143019685Y-90556961D01*
X143072489Y-90511206D01*
X143124000Y-90500000D01*
X156876000Y-90500000D01*
X156943039Y-90519685D01*
G37*
G04 #@! TD.AperFunction*
G04 #@! TD*
M02*
