G04 #@! TF.GenerationSoftware,KiCad,Pcbnew,9.0.5*
G04 #@! TF.CreationDate,2026-04-20T16:12:51+09:00*
G04 #@! TF.ProjectId,pippitank-engine,70697070-6974-4616-9e6b-2d656e67696e,rev?*
G04 #@! TF.SameCoordinates,Original*
G04 #@! TF.FileFunction,Legend,Bot*
G04 #@! TF.FilePolarity,Positive*
%FSLAX46Y46*%
G04 Gerber Fmt 4.6, Leading zero omitted, Abs format (unit mm)*
G04 Created by KiCad (PCBNEW 9.0.5) date 2026-04-20 16:12:51*
%MOMM*%
%LPD*%
G01*
G04 APERTURE LIST*
G04 Aperture macros list*
%AMRoundRect*
0 Rectangle with rounded corners*
0 $1 Rounding radius*
0 $2 $3 $4 $5 $6 $7 $8 $9 X,Y pos of 4 corners*
0 Add a 4 corners polygon primitive as box body*
4,1,4,$2,$3,$4,$5,$6,$7,$8,$9,$2,$3,0*
0 Add four circle primitives for the rounded corners*
1,1,$1+$1,$2,$3*
1,1,$1+$1,$4,$5*
1,1,$1+$1,$6,$7*
1,1,$1+$1,$8,$9*
0 Add four rect primitives between the rounded corners*
20,1,$1+$1,$2,$3,$4,$5,0*
20,1,$1+$1,$4,$5,$6,$7,0*
20,1,$1+$1,$6,$7,$8,$9,0*
20,1,$1+$1,$8,$9,$2,$3,0*%
%AMOutline5P*
0 Free polygon, 5 corners , with rotation*
0 The origin of the aperture is its center*
0 number of corners: always 5*
0 $1 to $10 corner X, Y*
0 $11 Rotation angle, in degrees counterclockwise*
0 create outline with 5 corners*
4,1,5,$1,$2,$3,$4,$5,$6,$7,$8,$9,$10,$1,$2,$11*%
%AMOutline6P*
0 Free polygon, 6 corners , with rotation*
0 The origin of the aperture is its center*
0 number of corners: always 6*
0 $1 to $12 corner X, Y*
0 $13 Rotation angle, in degrees counterclockwise*
0 create outline with 6 corners*
4,1,6,$1,$2,$3,$4,$5,$6,$7,$8,$9,$10,$11,$12,$1,$2,$13*%
%AMOutline7P*
0 Free polygon, 7 corners , with rotation*
0 The origin of the aperture is its center*
0 number of corners: always 7*
0 $1 to $14 corner X, Y*
0 $15 Rotation angle, in degrees counterclockwise*
0 create outline with 7 corners*
4,1,7,$1,$2,$3,$4,$5,$6,$7,$8,$9,$10,$11,$12,$13,$14,$1,$2,$15*%
%AMOutline8P*
0 Free polygon, 8 corners , with rotation*
0 The origin of the aperture is its center*
0 number of corners: always 8*
0 $1 to $16 corner X, Y*
0 $17 Rotation angle, in degrees counterclockwise*
0 create outline with 8 corners*
4,1,8,$1,$2,$3,$4,$5,$6,$7,$8,$9,$10,$11,$12,$13,$14,$15,$16,$1,$2,$17*%
G04 Aperture macros list end*
%ADD10C,0.120000*%
%ADD11RoundRect,0.237500X-0.237500X0.250000X-0.237500X-0.250000X0.237500X-0.250000X0.237500X0.250000X0*%
%ADD12RoundRect,0.237500X0.237500X-0.250000X0.237500X0.250000X-0.237500X0.250000X-0.237500X-0.250000X0*%
%ADD13R,2.000000X0.900000*%
%ADD14RoundRect,1.025000X1.025000X-1.025000X1.025000X1.025000X-1.025000X1.025000X-1.025000X-1.025000X0*%
%ADD15C,4.100000*%
%ADD16RoundRect,0.250000X0.725000X-0.600000X0.725000X0.600000X-0.725000X0.600000X-0.725000X-0.600000X0*%
%ADD17O,1.950000X1.700000*%
%ADD18Outline5P,-1.600000X0.660000X-1.160000X1.100000X1.600000X1.100000X1.600000X-1.100000X-1.600000X-1.100000X270.000000*%
%ADD19R,2.200000X3.200000*%
%ADD20R,0.900000X2.000000*%
%ADD21RoundRect,1.025000X-1.025000X-1.025000X1.025000X-1.025000X1.025000X1.025000X-1.025000X1.025000X0*%
%ADD22RoundRect,1.025000X-1.025000X1.025000X-1.025000X-1.025000X1.025000X-1.025000X1.025000X1.025000X0*%
%ADD23Outline5P,-1.600000X0.660000X-1.160000X1.100000X1.600000X1.100000X1.600000X-1.100000X-1.600000X-1.100000X0.000000*%
%ADD24R,3.200000X2.200000*%
%ADD25C,3.200000*%
%ADD26RoundRect,0.250000X-0.600000X-0.725000X0.600000X-0.725000X0.600000X0.725000X-0.600000X0.725000X0*%
%ADD27O,1.700000X1.950000*%
%ADD28C,1.400000*%
%ADD29RoundRect,0.770000X0.980000X0.980000X-0.980000X0.980000X-0.980000X-0.980000X0.980000X-0.980000X0*%
%ADD30C,3.500000*%
%ADD31RoundRect,0.250000X-0.450000X0.350000X-0.450000X-0.350000X0.450000X-0.350000X0.450000X0.350000X0*%
%ADD32RoundRect,0.150000X0.150000X-0.825000X0.150000X0.825000X-0.150000X0.825000X-0.150000X-0.825000X0*%
%ADD33RoundRect,0.237500X0.250000X0.237500X-0.250000X0.237500X-0.250000X-0.237500X0.250000X-0.237500X0*%
%ADD34RoundRect,0.237500X-0.250000X-0.237500X0.250000X-0.237500X0.250000X0.237500X-0.250000X0.237500X0*%
%ADD35RoundRect,0.200000X-0.750000X-0.200000X0.750000X-0.200000X0.750000X0.200000X-0.750000X0.200000X0*%
%ADD36RoundRect,0.162500X-0.617500X-0.162500X0.617500X-0.162500X0.617500X0.162500X-0.617500X0.162500X0*%
%ADD37RoundRect,0.162500X0.617500X0.162500X-0.617500X0.162500X-0.617500X-0.162500X0.617500X-0.162500X0*%
%ADD38RoundRect,0.250000X0.300000X0.300000X-0.300000X0.300000X-0.300000X-0.300000X0.300000X-0.300000X0*%
%ADD39RoundRect,0.150000X0.587500X0.150000X-0.587500X0.150000X-0.587500X-0.150000X0.587500X-0.150000X0*%
%ADD40C,0.600000*%
G04 APERTURE END LIST*
D10*
G04 #@! TO.C,R5*
X107022500Y-106245276D02*
X107022500Y-106754724D01*
X105977500Y-106245276D02*
X105977500Y-106754724D01*
G04 #@! TO.C,C4*
X108522500Y-106245276D02*
X108522500Y-106754724D01*
X107477500Y-106245276D02*
X107477500Y-106754724D01*
G04 #@! TO.C,R8*
X130022500Y-62245276D02*
X130022500Y-62754724D01*
X128977500Y-62245276D02*
X128977500Y-62754724D01*
G04 #@! TO.C,C5*
X135022500Y-62754724D02*
X135022500Y-62245276D01*
X133977500Y-62754724D02*
X133977500Y-62245276D01*
G04 #@! TO.C,R6*
X133522500Y-62245276D02*
X133522500Y-62754724D01*
X132477500Y-62245276D02*
X132477500Y-62754724D01*
G04 #@! TO.C,C2*
X151265000Y-114772936D02*
X151265000Y-115227064D01*
X152735000Y-114772936D02*
X152735000Y-115227064D01*
G04 #@! TO.C,R7*
X130977500Y-62754724D02*
X130977500Y-62245276D01*
X132022500Y-62754724D02*
X132022500Y-62245276D01*
G04 #@! TO.C,U4*
X149565000Y-101940000D02*
X149565000Y-106060000D01*
X149565000Y-106060000D02*
X149630000Y-106060000D01*
X149630000Y-101940000D02*
X149565000Y-101940000D01*
X158370000Y-106060000D02*
X158435000Y-106060000D01*
X158435000Y-101940000D02*
X158370000Y-101940000D01*
X158435000Y-106060000D02*
X158435000Y-101940000D01*
X158700000Y-106840000D02*
X158370000Y-106600000D01*
X158700000Y-106360000D01*
X158700000Y-106840000D01*
G36*
X158700000Y-106840000D02*
G01*
X158370000Y-106600000D01*
X158700000Y-106360000D01*
X158700000Y-106840000D01*
G37*
G04 #@! TO.C,R37*
X163977500Y-100745276D02*
X163977500Y-101254724D01*
X165022500Y-100745276D02*
X165022500Y-101254724D01*
G04 #@! TO.C,R31*
X145254724Y-101477500D02*
X144745276Y-101477500D01*
X145254724Y-102522500D02*
X144745276Y-102522500D01*
G04 #@! TO.C,C15*
X156745276Y-96977500D02*
X157254724Y-96977500D01*
X156745276Y-98022500D02*
X157254724Y-98022500D01*
G04 #@! TO.C,U1*
X155960000Y-116580000D02*
X155160000Y-116580000D01*
X155960000Y-116580000D02*
X156760000Y-116580000D01*
X156760000Y-113420000D02*
X155300000Y-113420000D01*
X156760000Y-113420000D02*
X156760000Y-114350000D01*
X156760000Y-116580000D02*
X156760000Y-115650000D01*
X154900000Y-116940000D02*
X154420000Y-116940000D01*
X154660000Y-116610000D01*
X154900000Y-116940000D01*
G36*
X154900000Y-116940000D02*
G01*
X154420000Y-116940000D01*
X154660000Y-116610000D01*
X154900000Y-116940000D01*
G37*
G04 #@! TO.C,R3*
X132477500Y-66745276D02*
X132477500Y-67254724D01*
X133522500Y-66745276D02*
X133522500Y-67254724D01*
G04 #@! TO.C,U2*
X119100000Y-82390000D02*
X120900000Y-82390000D01*
X120100000Y-85610000D02*
X119300000Y-85610000D01*
X120100000Y-85610000D02*
X120900000Y-85610000D01*
X119040000Y-85890000D02*
X118560000Y-85890000D01*
X118800000Y-85560000D01*
X119040000Y-85890000D01*
G36*
X119040000Y-85890000D02*
G01*
X118560000Y-85890000D01*
X118800000Y-85560000D01*
X119040000Y-85890000D01*
G37*
G04 #@! TO.C,R34*
X157277500Y-94745276D02*
X157277500Y-95254724D01*
X158322500Y-94745276D02*
X158322500Y-95254724D01*
G04 #@! TO.C,R36*
X158977500Y-94745276D02*
X158977500Y-95254724D01*
X160022500Y-94745276D02*
X160022500Y-95254724D01*
G04 #@! TO.C,R4*
X103977500Y-106754724D02*
X103977500Y-106245276D01*
X105022500Y-106754724D02*
X105022500Y-106245276D01*
G04 #@! TO.C,R26*
X126977500Y-81264776D02*
X126977500Y-81774224D01*
X128022500Y-81264776D02*
X128022500Y-81774224D01*
G04 #@! TO.C,C13*
X146754724Y-99977500D02*
X146245276Y-99977500D01*
X146754724Y-101022500D02*
X146245276Y-101022500D01*
G04 #@! TO.C,R11*
X134087500Y-83445276D02*
X134087500Y-83954724D01*
X135132500Y-83445276D02*
X135132500Y-83954724D01*
G04 #@! TO.C,R35*
X144745276Y-107477500D02*
X145254724Y-107477500D01*
X144745276Y-108522500D02*
X145254724Y-108522500D01*
G04 #@! TO.C,R27*
X127977500Y-93745276D02*
X127977500Y-94254724D01*
X129022500Y-93745276D02*
X129022500Y-94254724D01*
G04 #@! TO.C,U5*
X132900000Y-91390000D02*
X132100000Y-91390000D01*
X132900000Y-91390000D02*
X133700000Y-91390000D01*
X133900000Y-94610000D02*
X132100000Y-94610000D01*
X134200000Y-91440000D02*
X133960000Y-91110000D01*
X134440000Y-91110000D01*
X134200000Y-91440000D01*
G36*
X134200000Y-91440000D02*
G01*
X133960000Y-91110000D01*
X134440000Y-91110000D01*
X134200000Y-91440000D01*
G37*
G04 #@! TO.C,C11*
X153745276Y-98477500D02*
X154254724Y-98477500D01*
X153745276Y-99522500D02*
X154254724Y-99522500D01*
G04 #@! TO.C,R14*
X117977500Y-79745276D02*
X117977500Y-80254724D01*
X119022500Y-79745276D02*
X119022500Y-80254724D01*
G04 #@! TO.C,C9*
X135977500Y-91254724D02*
X135977500Y-90745276D01*
X137022500Y-91254724D02*
X137022500Y-90745276D01*
G04 #@! TO.C,D2*
X158210000Y-111000000D02*
X154350000Y-111000000D01*
X158210000Y-111000000D02*
X158210000Y-113000000D01*
X158210000Y-113000000D02*
X154350000Y-113000000D01*
G04 #@! TO.C,R2*
X130977500Y-67254724D02*
X130977500Y-66745276D01*
X132022500Y-67254724D02*
X132022500Y-66745276D01*
G04 #@! TO.C,C18*
X161977500Y-105254724D02*
X161977500Y-104745276D01*
X163022500Y-105254724D02*
X163022500Y-104745276D01*
G04 #@! TO.C,C12*
X146754724Y-98477500D02*
X146245276Y-98477500D01*
X146754724Y-99522500D02*
X146245276Y-99522500D01*
G04 #@! TO.C,C17*
X158977500Y-99245276D02*
X158977500Y-99754724D01*
X160022500Y-99245276D02*
X160022500Y-99754724D01*
G04 #@! TO.C,Q2*
X136240000Y-68440000D02*
X136240000Y-69440000D01*
X136240000Y-70560000D02*
X136240000Y-71560000D01*
X136240000Y-71560000D02*
X137760000Y-71560000D01*
X137760000Y-68440000D02*
X136240000Y-68440000D01*
X137760000Y-68490000D02*
X137760000Y-68440000D01*
X137760000Y-70390000D02*
X137760000Y-69610000D01*
X137760000Y-71560000D02*
X137760000Y-71510000D01*
X138540000Y-69950000D02*
X138060000Y-69950000D01*
X138300000Y-69620000D01*
X138540000Y-69950000D01*
G36*
X138540000Y-69950000D02*
G01*
X138060000Y-69950000D01*
X138300000Y-69620000D01*
X138540000Y-69950000D01*
G37*
G04 #@! TO.C,R10*
X117245276Y-87977500D02*
X117754724Y-87977500D01*
X117245276Y-89022500D02*
X117754724Y-89022500D01*
G04 #@! TO.C,R33*
X144745276Y-102977500D02*
X145254724Y-102977500D01*
X144745276Y-104022500D02*
X145254724Y-104022500D01*
G04 #@! TO.C,C8*
X160754724Y-106977500D02*
X160245276Y-106977500D01*
X160754724Y-108022500D02*
X160245276Y-108022500D01*
G04 #@! TO.C,R38*
X159977500Y-105254724D02*
X159977500Y-104745276D01*
X161022500Y-105254724D02*
X161022500Y-104745276D01*
G04 #@! TO.C,R24*
X137477500Y-90745276D02*
X137477500Y-91254724D01*
X138522500Y-90745276D02*
X138522500Y-91254724D01*
G04 #@! TO.C,C16*
X146245276Y-105977500D02*
X146754724Y-105977500D01*
X146245276Y-107022500D02*
X146754724Y-107022500D01*
G04 #@! TO.C,C1*
X154745276Y-117477500D02*
X155254724Y-117477500D01*
X154745276Y-118522500D02*
X155254724Y-118522500D01*
G04 #@! TO.C,C7*
X135587500Y-83954724D02*
X135587500Y-83445276D01*
X136632500Y-83954724D02*
X136632500Y-83445276D01*
G04 #@! TO.C,R9*
X134254724Y-71477500D02*
X133745276Y-71477500D01*
X134254724Y-72522500D02*
X133745276Y-72522500D01*
G04 #@! TO.C,R25*
X163977500Y-105109724D02*
X163977500Y-104600276D01*
X165022500Y-105109724D02*
X165022500Y-104600276D01*
G04 #@! TO.C,R20*
X150245276Y-98477500D02*
X150754724Y-98477500D01*
X150245276Y-99522500D02*
X150754724Y-99522500D01*
G04 #@! TO.C,U3*
X139100000Y-81890000D02*
X140900000Y-81890000D01*
X140100000Y-85110000D02*
X139300000Y-85110000D01*
X140100000Y-85110000D02*
X140900000Y-85110000D01*
X139040000Y-85390000D02*
X138560000Y-85390000D01*
X138800000Y-85060000D01*
X139040000Y-85390000D01*
G36*
X139040000Y-85390000D02*
G01*
X138560000Y-85390000D01*
X138800000Y-85060000D01*
X139040000Y-85390000D01*
G37*
G04 #@! TO.C,R32*
X152745276Y-96977500D02*
X153254724Y-96977500D01*
X152745276Y-98022500D02*
X153254724Y-98022500D01*
G04 #@! TO.C,C10*
X130254724Y-80077500D02*
X129745276Y-80077500D01*
X130254724Y-81122500D02*
X129745276Y-81122500D01*
G04 #@! TO.C,C3*
X133977500Y-67254724D02*
X133977500Y-66745276D01*
X135022500Y-67254724D02*
X135022500Y-66745276D01*
G04 #@! TO.C,C6*
X117754724Y-86477500D02*
X117245276Y-86477500D01*
X117754724Y-87522500D02*
X117245276Y-87522500D01*
G04 #@! TO.C,R1*
X129477500Y-66745276D02*
X129477500Y-67254724D01*
X130522500Y-66745276D02*
X130522500Y-67254724D01*
G04 #@! TO.C,C14*
X146754724Y-104477500D02*
X146245276Y-104477500D01*
X146754724Y-105522500D02*
X146245276Y-105522500D01*
G04 #@! TO.C,R30*
X142245276Y-96977500D02*
X142754724Y-96977500D01*
X142245276Y-98022500D02*
X142754724Y-98022500D01*
G04 #@! TO.C,R16*
X139377500Y-79754724D02*
X139377500Y-79245276D01*
X140422500Y-79754724D02*
X140422500Y-79245276D01*
G04 #@! TD*
%LPC*%
D11*
G04 #@! TO.C,R5*
X106500000Y-107412500D03*
X106500000Y-105587500D03*
G04 #@! TD*
G04 #@! TO.C,C4*
X108000000Y-107412500D03*
X108000000Y-105587500D03*
G04 #@! TD*
G04 #@! TO.C,R8*
X129500000Y-63412500D03*
X129500000Y-61587500D03*
G04 #@! TD*
D12*
G04 #@! TO.C,C5*
X134500000Y-61587500D03*
X134500000Y-63412500D03*
G04 #@! TD*
D11*
G04 #@! TO.C,R6*
X133000000Y-63412500D03*
X133000000Y-61587500D03*
G04 #@! TD*
D13*
G04 #@! TO.C,J3*
X99350000Y-97405000D03*
X99350000Y-83905000D03*
D14*
X105350000Y-94255000D03*
D15*
X105350000Y-87055000D03*
G04 #@! TD*
D16*
G04 #@! TO.C,J5*
X167600000Y-107355000D03*
D17*
X167600000Y-104855000D03*
X167600000Y-102355000D03*
G04 #@! TD*
D18*
G04 #@! TO.C,F1*
X113785000Y-81765000D03*
D19*
X110385000Y-81765000D03*
X113785000Y-95235000D03*
X110385000Y-95235000D03*
G04 #@! TD*
D20*
G04 #@! TO.C,J1*
X111250000Y-63850000D03*
X124750000Y-63850000D03*
D21*
X114400000Y-69850000D03*
D15*
X121600000Y-69850000D03*
G04 #@! TD*
D13*
G04 #@! TO.C,J4*
X160650000Y-83905000D03*
X160650000Y-97405000D03*
D22*
X154650000Y-87055000D03*
D15*
X154650000Y-94255000D03*
G04 #@! TD*
D23*
G04 #@! TO.C,F3*
X123265000Y-99290000D03*
D24*
X123265000Y-102690000D03*
X136735000Y-99290000D03*
X136735000Y-102690000D03*
G04 #@! TD*
D25*
G04 #@! TO.C,REF\u002A\u002A*
X167500000Y-117000000D03*
G04 #@! TD*
D26*
G04 #@! TO.C,J6*
X143000000Y-111300000D03*
D27*
X145500000Y-111300000D03*
X148000000Y-111300000D03*
X150500000Y-111300000D03*
G04 #@! TD*
D28*
G04 #@! TO.C,J8*
X137900000Y-117400000D03*
X126900000Y-117400000D03*
D29*
X129900000Y-107400000D03*
D30*
X134900000Y-107400000D03*
G04 #@! TD*
D25*
G04 #@! TO.C,REF\u002A\u002A*
X92500000Y-117000000D03*
G04 #@! TD*
G04 #@! TO.C,REF\u002A\u002A*
X167500000Y-57000000D03*
G04 #@! TD*
G04 #@! TO.C,REF\u002A\u002A*
X92500000Y-57000000D03*
G04 #@! TD*
D18*
G04 #@! TO.C,F2*
X149615000Y-81765000D03*
D19*
X146215000Y-81765000D03*
X149615000Y-95235000D03*
X146215000Y-95235000D03*
G04 #@! TD*
D26*
G04 #@! TO.C,J2*
X102000000Y-111300000D03*
D27*
X104500000Y-111300000D03*
X107000000Y-111300000D03*
G04 #@! TD*
D28*
G04 #@! TO.C,J7*
X123100000Y-117400000D03*
X112100000Y-117400000D03*
D29*
X115100000Y-107400000D03*
D30*
X120100000Y-107400000D03*
G04 #@! TD*
D31*
G04 #@! TO.C,C2*
X152000000Y-114000000D03*
X152000000Y-116000000D03*
G04 #@! TD*
D12*
G04 #@! TO.C,R7*
X131500000Y-63412500D03*
X131500000Y-61587500D03*
G04 #@! TD*
D32*
G04 #@! TO.C,U4*
X157810000Y-106475000D03*
X156540000Y-106475000D03*
X155270000Y-106475000D03*
X154000000Y-106475000D03*
X152730000Y-106475000D03*
X151460000Y-106475000D03*
X150190000Y-106475000D03*
X150190000Y-101525000D03*
X151460000Y-101525000D03*
X152730000Y-101525000D03*
X154000000Y-101525000D03*
X155270000Y-101525000D03*
X156540000Y-101525000D03*
X157810000Y-101525000D03*
G04 #@! TD*
D11*
G04 #@! TO.C,R37*
X164500000Y-100087500D03*
X164500000Y-101912500D03*
G04 #@! TD*
D33*
G04 #@! TO.C,R31*
X145912500Y-102000000D03*
X144087500Y-102000000D03*
G04 #@! TD*
D34*
G04 #@! TO.C,C15*
X156087500Y-97500000D03*
X157912500Y-97500000D03*
G04 #@! TD*
D35*
G04 #@! TO.C,U1*
X154500000Y-115950000D03*
X154500000Y-114050000D03*
X157500000Y-115000000D03*
G04 #@! TD*
D11*
G04 #@! TO.C,R3*
X133000000Y-66087500D03*
X133000000Y-67912500D03*
G04 #@! TD*
D36*
G04 #@! TO.C,U2*
X118650000Y-84950000D03*
X118650000Y-84000000D03*
X118650000Y-83050000D03*
X121350000Y-83050000D03*
X121350000Y-84950000D03*
G04 #@! TD*
D11*
G04 #@! TO.C,R34*
X157800000Y-94087500D03*
X157800000Y-95912500D03*
G04 #@! TD*
G04 #@! TO.C,R36*
X159500000Y-94087500D03*
X159500000Y-95912500D03*
G04 #@! TD*
D12*
G04 #@! TO.C,R4*
X104500000Y-107412500D03*
X104500000Y-105587500D03*
G04 #@! TD*
D11*
G04 #@! TO.C,R26*
X127500000Y-80607000D03*
X127500000Y-82432000D03*
G04 #@! TD*
D33*
G04 #@! TO.C,C13*
X147412500Y-100500000D03*
X145587500Y-100500000D03*
G04 #@! TD*
D11*
G04 #@! TO.C,R11*
X134610000Y-82787500D03*
X134610000Y-84612500D03*
G04 #@! TD*
D34*
G04 #@! TO.C,R35*
X144087500Y-108000000D03*
X145912500Y-108000000D03*
G04 #@! TD*
D11*
G04 #@! TO.C,R27*
X128500000Y-93087500D03*
X128500000Y-94912500D03*
G04 #@! TD*
D37*
G04 #@! TO.C,U5*
X134350000Y-92050000D03*
X134350000Y-93000000D03*
X134350000Y-93950000D03*
X131650000Y-93950000D03*
X131650000Y-92050000D03*
G04 #@! TD*
D34*
G04 #@! TO.C,C11*
X153087500Y-99000000D03*
X154912500Y-99000000D03*
G04 #@! TD*
D11*
G04 #@! TO.C,R14*
X118500000Y-79087500D03*
X118500000Y-80912500D03*
G04 #@! TD*
D12*
G04 #@! TO.C,C9*
X136500000Y-91912500D03*
X136500000Y-90087500D03*
G04 #@! TD*
D38*
G04 #@! TO.C,D2*
X157400000Y-112000000D03*
X154600000Y-112000000D03*
G04 #@! TD*
D12*
G04 #@! TO.C,R2*
X131500000Y-67912500D03*
X131500000Y-66087500D03*
G04 #@! TD*
G04 #@! TO.C,C18*
X162500000Y-105912500D03*
X162500000Y-104087500D03*
G04 #@! TD*
D33*
G04 #@! TO.C,C12*
X147412500Y-99000000D03*
X145587500Y-99000000D03*
G04 #@! TD*
D11*
G04 #@! TO.C,C17*
X159500000Y-98587500D03*
X159500000Y-100412500D03*
G04 #@! TD*
D39*
G04 #@! TO.C,Q2*
X137937500Y-69050000D03*
X137937500Y-70950000D03*
X136062500Y-70000000D03*
G04 #@! TD*
D34*
G04 #@! TO.C,R10*
X116587500Y-88500000D03*
X118412500Y-88500000D03*
G04 #@! TD*
G04 #@! TO.C,R33*
X144087500Y-103500000D03*
X145912500Y-103500000D03*
G04 #@! TD*
D33*
G04 #@! TO.C,C8*
X161412500Y-107500000D03*
X159587500Y-107500000D03*
G04 #@! TD*
D12*
G04 #@! TO.C,R38*
X160500000Y-105912500D03*
X160500000Y-104087500D03*
G04 #@! TD*
D11*
G04 #@! TO.C,R24*
X138000000Y-90087500D03*
X138000000Y-91912500D03*
G04 #@! TD*
D34*
G04 #@! TO.C,C16*
X145587500Y-106500000D03*
X147412500Y-106500000D03*
G04 #@! TD*
G04 #@! TO.C,C1*
X154087500Y-118000000D03*
X155912500Y-118000000D03*
G04 #@! TD*
D12*
G04 #@! TO.C,C7*
X136110000Y-84612500D03*
X136110000Y-82787500D03*
G04 #@! TD*
D33*
G04 #@! TO.C,R9*
X134912500Y-72000000D03*
X133087500Y-72000000D03*
G04 #@! TD*
D12*
G04 #@! TO.C,R25*
X164500000Y-105767500D03*
X164500000Y-103942500D03*
G04 #@! TD*
D34*
G04 #@! TO.C,R20*
X149587500Y-99000000D03*
X151412500Y-99000000D03*
G04 #@! TD*
D36*
G04 #@! TO.C,U3*
X138650000Y-84450000D03*
X138650000Y-83500000D03*
X138650000Y-82550000D03*
X141350000Y-82550000D03*
X141350000Y-84450000D03*
G04 #@! TD*
D34*
G04 #@! TO.C,R32*
X152087500Y-97500000D03*
X153912500Y-97500000D03*
G04 #@! TD*
D33*
G04 #@! TO.C,C10*
X130912500Y-80600000D03*
X129087500Y-80600000D03*
G04 #@! TD*
D12*
G04 #@! TO.C,C3*
X134500000Y-67912500D03*
X134500000Y-66087500D03*
G04 #@! TD*
D33*
G04 #@! TO.C,C6*
X118412500Y-87000000D03*
X116587500Y-87000000D03*
G04 #@! TD*
D11*
G04 #@! TO.C,R1*
X130000000Y-66087500D03*
X130000000Y-67912500D03*
G04 #@! TD*
D33*
G04 #@! TO.C,C14*
X147412500Y-105000000D03*
X145587500Y-105000000D03*
G04 #@! TD*
D34*
G04 #@! TO.C,R30*
X141587500Y-97500000D03*
X143412500Y-97500000D03*
G04 #@! TD*
D12*
G04 #@! TO.C,R16*
X139900000Y-80412500D03*
X139900000Y-78587500D03*
G04 #@! TD*
D40*
X131000000Y-80600000D03*
X157400000Y-112000000D03*
X151456250Y-99043750D03*
X164500000Y-101912500D03*
X162500000Y-104087500D03*
X129000000Y-80600000D03*
%LPD*%
M02*
