M48
; DRILL file {KiCad 9.0.5} date 2026-04-20T16:12:56+0900
; FORMAT={-:-/ absolute / metric / decimal}
; #@! TF.CreationDate,2026-04-20T16:12:56+09:00
; #@! TF.GenerationSoftware,Kicad,Pcbnew,9.0.5
; #@! TF.FileFunction,Plated,1,2,PTH
FMAT,2
METRIC
; #@! TA.AperFunction,Plated,PTH,ViaDrill
T1C0.300
; #@! TA.AperFunction,Plated,PTH,ComponentDrill
T2C0.600
; #@! TA.AperFunction,Plated,PTH,ComponentDrill
T3C0.950
; #@! TA.AperFunction,Plated,PTH,ComponentDrill
T4C1.000
; #@! TA.AperFunction,Plated,PTH,ComponentDrill
T5C1.900
; #@! TA.AperFunction,Plated,PTH,ComponentDrill
T6C2.700
%
G90
G05
T1
X100.0Y-60.0
X102.0Y-79.5
X108.0Y-79.5
X112.0Y-60.0
X119.0Y-65.5
X119.6Y-81.45
X120.6Y-81.45
X123.5Y-85.95
X128.0Y-65.5
X128.0Y-72.0
X128.5Y-75.6
X128.5Y-77.1
X129.0Y-80.6
X130.0Y-69.9
X130.0Y-75.6
X130.0Y-77.1
X130.0Y-89.5
X130.0Y-92.5
X130.0Y-93.5
X131.0Y-80.6
X131.5Y-56.0
X131.5Y-75.6
X131.5Y-77.1
X132.28Y-69.9
X133.5Y-56.0
X135.75Y-59.25
X136.5Y-85.95
X139.361Y-63.709
X139.4Y-68.499
X139.4Y-81.45
X139.5Y-114.5
X140.2Y-68.5
X140.4Y-81.45
X151.456Y-99.044
X157.4Y-112.0
X162.5Y-99.0
X162.5Y-104.087
X164.5Y-101.912
T3
X102.0Y-111.3
X104.5Y-111.3
X107.0Y-111.3
X143.0Y-111.3
X145.5Y-111.3
X148.0Y-111.3
X150.5Y-111.3
X167.6Y-102.355
X167.6Y-104.855
X167.6Y-107.355
T4
X112.1Y-117.4
X123.1Y-117.4
X126.9Y-117.4
X137.9Y-117.4
T5
X115.1Y-107.4
X120.1Y-107.4
X129.9Y-107.4
X134.9Y-107.4
T6
X105.35Y-87.055
X105.35Y-94.255
X114.4Y-69.85
X121.6Y-69.85
X154.65Y-87.055
X154.65Y-94.255
T2
G00X98.8Y-83.905
M15
G01X99.9Y-83.905
M16
G05
G00X98.8Y-97.405
M15
G01X99.9Y-97.405
M16
G05
G00X111.25Y-63.3
M15
G01X111.25Y-64.4
M16
G05
G00X124.75Y-63.3
M15
G01X124.75Y-64.4
M16
G05
G00X161.2Y-83.905
M15
G01X160.1Y-83.905
M16
G05
G00X161.2Y-97.405
M15
G01X160.1Y-97.405
M16
G05
T4
G00X110.385Y-81.265
M15
G01X110.385Y-82.265
M16
G05
G00X110.385Y-94.735
M15
G01X110.385Y-95.735
M16
G05
G00X113.785Y-81.265
M15
G01X113.785Y-82.265
M16
G05
G00X113.785Y-94.735
M15
G01X113.785Y-95.735
M16
G05
G00X122.765Y-99.29
M15
G01X123.765Y-99.29
M16
G05
G00X122.765Y-102.69
M15
G01X123.765Y-102.69
M16
G05
G00X136.235Y-99.29
M15
G01X137.235Y-99.29
M16
G05
G00X136.235Y-102.69
M15
G01X137.235Y-102.69
M16
G05
G00X146.215Y-81.265
M15
G01X146.215Y-82.265
M16
G05
G00X146.215Y-94.735
M15
G01X146.215Y-95.735
M16
G05
G00X149.615Y-81.265
M15
G01X149.615Y-82.265
M16
G05
G00X149.615Y-94.735
M15
G01X149.615Y-95.735
M16
G05
M30
