G04 #@! TF.GenerationSoftware,KiCad,Pcbnew,9.0.5*
G04 #@! TF.CreationDate,2026-04-20T16:12:52+09:00*
G04 #@! TF.ProjectId,pippitank-engine,70697070-6974-4616-9e6b-2d656e67696e,rev?*
G04 #@! TF.SameCoordinates,Original*
G04 #@! TF.FileFunction,Soldermask,Top*
G04 #@! TF.FilePolarity,Negative*
%FSLAX46Y46*%
G04 Gerber Fmt 4.6, Leading zero omitted, Abs format (unit mm)*
G04 Created by KiCad (PCBNEW 9.0.5) date 2026-04-20 16:12:52*
%MOMM*%
%LPD*%
G01*
G04 APERTURE LIST*
G04 Aperture macros list*
%AMRoundRect*
0 Rectangle with rounded corners*
0 $1 Rounding radius*
0 $2 $3 $4 $5 $6 $7 $8 $9 X,Y pos of 4 corners*
0 Add a 4 corners polygon primitive as box body*
4,1,4,$2,$3,$4,$5,$6,$7,$8,$9,$2,$3,0*
0 Add four circle primitives for the rounded corners*
1,1,$1+$1,$2,$3*
1,1,$1+$1,$4,$5*
1,1,$1+$1,$6,$7*
1,1,$1+$1,$8,$9*
0 Add four rect primitives between the rounded corners*
20,1,$1+$1,$2,$3,$4,$5,0*
20,1,$1+$1,$4,$5,$6,$7,0*
20,1,$1+$1,$6,$7,$8,$9,0*
20,1,$1+$1,$8,$9,$2,$3,0*%
%AMOutline5P*
0 Free polygon, 5 corners , with rotation*
0 The origin of the aperture is its center*
0 number of corners: always 5*
0 $1 to $10 corner X, Y*
0 $11 Rotation angle, in degrees counterclockwise*
0 create outline with 5 corners*
4,1,5,$1,$2,$3,$4,$5,$6,$7,$8,$9,$10,$1,$2,$11*%
%AMOutline6P*
0 Free polygon, 6 corners , with rotation*
0 The origin of the aperture is its center*
0 number of corners: always 6*
0 $1 to $12 corner X, Y*
0 $13 Rotation angle, in degrees counterclockwise*
0 create outline with 6 corners*
4,1,6,$1,$2,$3,$4,$5,$6,$7,$8,$9,$10,$11,$12,$1,$2,$13*%
%AMOutline7P*
0 Free polygon, 7 corners , with rotation*
0 The origin of the aperture is its center*
0 number of corners: always 7*
0 $1 to $14 corner X, Y*
0 $15 Rotation angle, in degrees counterclockwise*
0 create outline with 7 corners*
4,1,7,$1,$2,$3,$4,$5,$6,$7,$8,$9,$10,$11,$12,$13,$14,$1,$2,$15*%
%AMOutline8P*
0 Free polygon, 8 corners , with rotation*
0 The origin of the aperture is its center*
0 number of corners: always 8*
0 $1 to $16 corner X, Y*
0 $17 Rotation angle, in degrees counterclockwise*
0 create outline with 8 corners*
4,1,8,$1,$2,$3,$4,$5,$6,$7,$8,$9,$10,$11,$12,$13,$14,$15,$16,$1,$2,$17*%
G04 Aperture macros list end*
%ADD10R,2.000000X0.900000*%
%ADD11RoundRect,1.025000X1.025000X-1.025000X1.025000X1.025000X-1.025000X1.025000X-1.025000X-1.025000X0*%
%ADD12C,4.100000*%
%ADD13RoundRect,0.250000X0.725000X-0.600000X0.725000X0.600000X-0.725000X0.600000X-0.725000X-0.600000X0*%
%ADD14O,1.950000X1.700000*%
%ADD15RoundRect,0.250000X1.425000X-0.362500X1.425000X0.362500X-1.425000X0.362500X-1.425000X-0.362500X0*%
%ADD16Outline5P,-1.600000X0.660000X-1.160000X1.100000X1.600000X1.100000X1.600000X-1.100000X-1.600000X-1.100000X270.000000*%
%ADD17R,2.200000X3.200000*%
%ADD18R,0.900000X2.000000*%
%ADD19RoundRect,1.025000X-1.025000X-1.025000X1.025000X-1.025000X1.025000X1.025000X-1.025000X1.025000X0*%
%ADD20RoundRect,0.250000X-0.362500X-1.425000X0.362500X-1.425000X0.362500X1.425000X-0.362500X1.425000X0*%
%ADD21RoundRect,0.250000X0.362500X1.425000X-0.362500X1.425000X-0.362500X-1.425000X0.362500X-1.425000X0*%
%ADD22RoundRect,1.025000X-1.025000X1.025000X-1.025000X-1.025000X1.025000X-1.025000X1.025000X1.025000X0*%
%ADD23RoundRect,0.237500X0.237500X-0.250000X0.237500X0.250000X-0.237500X0.250000X-0.237500X-0.250000X0*%
%ADD24Outline5P,-1.600000X0.660000X-1.160000X1.100000X1.600000X1.100000X1.600000X-1.100000X-1.600000X-1.100000X0.000000*%
%ADD25R,3.200000X2.200000*%
%ADD26C,3.200000*%
%ADD27RoundRect,0.250000X-0.600000X-0.725000X0.600000X-0.725000X0.600000X0.725000X-0.600000X0.725000X0*%
%ADD28O,1.700000X1.950000*%
%ADD29C,1.400000*%
%ADD30RoundRect,0.770000X0.980000X0.980000X-0.980000X0.980000X-0.980000X-0.980000X0.980000X-0.980000X0*%
%ADD31C,3.500000*%
%ADD32R,0.600000X0.510000*%
%ADD33R,0.900000X0.700000*%
%ADD34RoundRect,0.250000X-0.350000X0.850000X-0.350000X-0.850000X0.350000X-0.850000X0.350000X0.850000X0*%
%ADD35RoundRect,0.249997X-2.650003X2.950003X-2.650003X-2.950003X2.650003X-2.950003X2.650003X2.950003X0*%
%ADD36RoundRect,0.250000X-0.350000X-0.450000X0.350000X-0.450000X0.350000X0.450000X-0.350000X0.450000X0*%
%ADD37RoundRect,0.237500X0.237500X-0.287500X0.237500X0.287500X-0.237500X0.287500X-0.237500X-0.287500X0*%
%ADD38C,0.600000*%
G04 APERTURE END LIST*
D10*
G04 #@! TO.C,J3*
X99350000Y-97405000D03*
X99350000Y-83905000D03*
D11*
X105350000Y-94255000D03*
D12*
X105350000Y-87055000D03*
G04 #@! TD*
D13*
G04 #@! TO.C,J5*
X167600000Y-107355000D03*
D14*
X167600000Y-104855000D03*
X167600000Y-102355000D03*
G04 #@! TD*
D15*
G04 #@! TO.C,R28*
X127750000Y-95962500D03*
X127750000Y-90037500D03*
G04 #@! TD*
D16*
G04 #@! TO.C,F1*
X113785000Y-81765000D03*
D17*
X110385000Y-81765000D03*
X113785000Y-95235000D03*
X110385000Y-95235000D03*
G04 #@! TD*
D18*
G04 #@! TO.C,J1*
X111250000Y-63850000D03*
X124750000Y-63850000D03*
D19*
X114400000Y-69850000D03*
D12*
X121600000Y-69850000D03*
G04 #@! TD*
D20*
G04 #@! TO.C,R15*
X117137500Y-79200000D03*
X123062500Y-79200000D03*
G04 #@! TD*
D21*
G04 #@! TO.C,R23*
X142862500Y-74700000D03*
X136937500Y-74700000D03*
G04 #@! TD*
D10*
G04 #@! TO.C,J4*
X160650000Y-83905000D03*
X160650000Y-97405000D03*
D22*
X154650000Y-87055000D03*
D12*
X154650000Y-94255000D03*
G04 #@! TD*
D23*
G04 #@! TO.C,R17*
X129000000Y-62412500D03*
X129000000Y-60587500D03*
G04 #@! TD*
D24*
G04 #@! TO.C,F3*
X123265000Y-99290000D03*
D25*
X123265000Y-102690000D03*
X136735000Y-99290000D03*
X136735000Y-102690000D03*
G04 #@! TD*
D20*
G04 #@! TO.C,R19*
X117137500Y-83700000D03*
X123062500Y-83700000D03*
G04 #@! TD*
D26*
G04 #@! TO.C,REF\u002A\u002A*
X167500000Y-117000000D03*
G04 #@! TD*
D27*
G04 #@! TO.C,J6*
X143000000Y-111300000D03*
D28*
X145500000Y-111300000D03*
X148000000Y-111300000D03*
X150500000Y-111300000D03*
G04 #@! TD*
D21*
G04 #@! TO.C,R18*
X142862500Y-83700000D03*
X136937500Y-83700000D03*
G04 #@! TD*
D29*
G04 #@! TO.C,J8*
X137900000Y-117400000D03*
X126900000Y-117400000D03*
D30*
X129900000Y-107400000D03*
D31*
X134900000Y-107400000D03*
G04 #@! TD*
D26*
G04 #@! TO.C,REF\u002A\u002A*
X92500000Y-117000000D03*
G04 #@! TD*
D20*
G04 #@! TO.C,R22*
X117137500Y-88200000D03*
X123062500Y-88200000D03*
G04 #@! TD*
D32*
G04 #@! TO.C,SW1*
X133500000Y-55355000D03*
X132500000Y-55355000D03*
X131500000Y-55355000D03*
D33*
X135500000Y-54000000D03*
X129500000Y-54000000D03*
G04 #@! TD*
D34*
G04 #@! TO.C,Q1*
X132280000Y-69900000D03*
X130000000Y-69900000D03*
D35*
X130000000Y-76200000D03*
D34*
X127720000Y-69900000D03*
G04 #@! TD*
D26*
G04 #@! TO.C,REF\u002A\u002A*
X167500000Y-57000000D03*
G04 #@! TD*
D36*
G04 #@! TO.C,TH1*
X129000000Y-80600000D03*
X131000000Y-80600000D03*
G04 #@! TD*
D20*
G04 #@! TO.C,R12*
X117137500Y-74700000D03*
X123062500Y-74700000D03*
G04 #@! TD*
D26*
G04 #@! TO.C,REF\u002A\u002A*
X92500000Y-57000000D03*
G04 #@! TD*
D16*
G04 #@! TO.C,F2*
X149615000Y-81765000D03*
D17*
X146215000Y-81765000D03*
X149615000Y-95235000D03*
X146215000Y-95235000D03*
G04 #@! TD*
D21*
G04 #@! TO.C,R13*
X142862500Y-88200000D03*
X136937500Y-88200000D03*
G04 #@! TD*
D27*
G04 #@! TO.C,J2*
X102000000Y-111300000D03*
D28*
X104500000Y-111300000D03*
X107000000Y-111300000D03*
G04 #@! TD*
D37*
G04 #@! TO.C,D1*
X127500000Y-62375000D03*
X127500000Y-60625000D03*
G04 #@! TD*
D21*
G04 #@! TO.C,R21*
X142862500Y-79200000D03*
X136937500Y-79200000D03*
G04 #@! TD*
D15*
G04 #@! TO.C,R29*
X132250000Y-95962500D03*
X132250000Y-90037500D03*
G04 #@! TD*
D29*
G04 #@! TO.C,J7*
X123100000Y-117400000D03*
X112100000Y-117400000D03*
D30*
X115100000Y-107400000D03*
D31*
X120100000Y-107400000D03*
G04 #@! TD*
D38*
X131000000Y-80600000D03*
X131500000Y-75600000D03*
X130000000Y-69900000D03*
X130000000Y-77100000D03*
X131500000Y-77100000D03*
X130000000Y-75600000D03*
X128500000Y-75600000D03*
X128500000Y-77100000D03*
X132280000Y-69900000D03*
X129000000Y-80600000D03*
M02*
