G04 #@! TF.GenerationSoftware,KiCad,Pcbnew,9.0.5*
G04 #@! TF.CreationDate,2026-04-20T16:12:51+09:00*
G04 #@! TF.ProjectId,pippitank-engine,70697070-6974-4616-9e6b-2d656e67696e,rev?*
G04 #@! TF.SameCoordinates,Original*
G04 #@! TF.FileFunction,Paste,Bot*
G04 #@! TF.FilePolarity,Positive*
%FSLAX46Y46*%
G04 Gerber Fmt 4.6, Leading zero omitted, Abs format (unit mm)*
G04 Created by KiCad (PCBNEW 9.0.5) date 2026-04-20 16:12:51*
%MOMM*%
%LPD*%
G01*
G04 APERTURE LIST*
G04 Aperture macros list*
%AMRoundRect*
0 Rectangle with rounded corners*
0 $1 Rounding radius*
0 $2 $3 $4 $5 $6 $7 $8 $9 X,Y pos of 4 corners*
0 Add a 4 corners polygon primitive as box body*
4,1,4,$2,$3,$4,$5,$6,$7,$8,$9,$2,$3,0*
0 Add four circle primitives for the rounded corners*
1,1,$1+$1,$2,$3*
1,1,$1+$1,$4,$5*
1,1,$1+$1,$6,$7*
1,1,$1+$1,$8,$9*
0 Add four rect primitives between the rounded corners*
20,1,$1+$1,$2,$3,$4,$5,0*
20,1,$1+$1,$4,$5,$6,$7,0*
20,1,$1+$1,$6,$7,$8,$9,0*
20,1,$1+$1,$8,$9,$2,$3,0*%
G04 Aperture macros list end*
%ADD10RoundRect,0.237500X-0.237500X0.250000X-0.237500X-0.250000X0.237500X-0.250000X0.237500X0.250000X0*%
%ADD11RoundRect,0.237500X0.237500X-0.250000X0.237500X0.250000X-0.237500X0.250000X-0.237500X-0.250000X0*%
%ADD12RoundRect,0.250000X-0.450000X0.350000X-0.450000X-0.350000X0.450000X-0.350000X0.450000X0.350000X0*%
%ADD13RoundRect,0.150000X0.150000X-0.825000X0.150000X0.825000X-0.150000X0.825000X-0.150000X-0.825000X0*%
%ADD14RoundRect,0.237500X0.250000X0.237500X-0.250000X0.237500X-0.250000X-0.237500X0.250000X-0.237500X0*%
%ADD15RoundRect,0.237500X-0.250000X-0.237500X0.250000X-0.237500X0.250000X0.237500X-0.250000X0.237500X0*%
%ADD16RoundRect,0.200000X-0.750000X-0.200000X0.750000X-0.200000X0.750000X0.200000X-0.750000X0.200000X0*%
%ADD17RoundRect,0.162500X-0.617500X-0.162500X0.617500X-0.162500X0.617500X0.162500X-0.617500X0.162500X0*%
%ADD18RoundRect,0.162500X0.617500X0.162500X-0.617500X0.162500X-0.617500X-0.162500X0.617500X-0.162500X0*%
%ADD19RoundRect,0.250000X0.300000X0.300000X-0.300000X0.300000X-0.300000X-0.300000X0.300000X-0.300000X0*%
%ADD20RoundRect,0.150000X0.587500X0.150000X-0.587500X0.150000X-0.587500X-0.150000X0.587500X-0.150000X0*%
G04 APERTURE END LIST*
D10*
G04 #@! TO.C,R5*
X106500000Y-107412500D03*
X106500000Y-105587500D03*
G04 #@! TD*
G04 #@! TO.C,C4*
X108000000Y-107412500D03*
X108000000Y-105587500D03*
G04 #@! TD*
G04 #@! TO.C,R8*
X129500000Y-63412500D03*
X129500000Y-61587500D03*
G04 #@! TD*
D11*
G04 #@! TO.C,C5*
X134500000Y-61587500D03*
X134500000Y-63412500D03*
G04 #@! TD*
D10*
G04 #@! TO.C,R6*
X133000000Y-63412500D03*
X133000000Y-61587500D03*
G04 #@! TD*
D12*
G04 #@! TO.C,C2*
X152000000Y-114000000D03*
X152000000Y-116000000D03*
G04 #@! TD*
D11*
G04 #@! TO.C,R7*
X131500000Y-63412500D03*
X131500000Y-61587500D03*
G04 #@! TD*
D13*
G04 #@! TO.C,U4*
X157810000Y-106475000D03*
X156540000Y-106475000D03*
X155270000Y-106475000D03*
X154000000Y-106475000D03*
X152730000Y-106475000D03*
X151460000Y-106475000D03*
X150190000Y-106475000D03*
X150190000Y-101525000D03*
X151460000Y-101525000D03*
X152730000Y-101525000D03*
X154000000Y-101525000D03*
X155270000Y-101525000D03*
X156540000Y-101525000D03*
X157810000Y-101525000D03*
G04 #@! TD*
D10*
G04 #@! TO.C,R37*
X164500000Y-100087500D03*
X164500000Y-101912500D03*
G04 #@! TD*
D14*
G04 #@! TO.C,R31*
X145912500Y-102000000D03*
X144087500Y-102000000D03*
G04 #@! TD*
D15*
G04 #@! TO.C,C15*
X156087500Y-97500000D03*
X157912500Y-97500000D03*
G04 #@! TD*
D16*
G04 #@! TO.C,U1*
X154500000Y-115950000D03*
X154500000Y-114050000D03*
X157500000Y-115000000D03*
G04 #@! TD*
D10*
G04 #@! TO.C,R3*
X133000000Y-66087500D03*
X133000000Y-67912500D03*
G04 #@! TD*
D17*
G04 #@! TO.C,U2*
X118650000Y-84950000D03*
X118650000Y-84000000D03*
X118650000Y-83050000D03*
X121350000Y-83050000D03*
X121350000Y-84950000D03*
G04 #@! TD*
D10*
G04 #@! TO.C,R34*
X157800000Y-94087500D03*
X157800000Y-95912500D03*
G04 #@! TD*
G04 #@! TO.C,R36*
X159500000Y-94087500D03*
X159500000Y-95912500D03*
G04 #@! TD*
D11*
G04 #@! TO.C,R4*
X104500000Y-107412500D03*
X104500000Y-105587500D03*
G04 #@! TD*
D10*
G04 #@! TO.C,R26*
X127500000Y-80607000D03*
X127500000Y-82432000D03*
G04 #@! TD*
D14*
G04 #@! TO.C,C13*
X147412500Y-100500000D03*
X145587500Y-100500000D03*
G04 #@! TD*
D10*
G04 #@! TO.C,R11*
X134610000Y-82787500D03*
X134610000Y-84612500D03*
G04 #@! TD*
D15*
G04 #@! TO.C,R35*
X144087500Y-108000000D03*
X145912500Y-108000000D03*
G04 #@! TD*
D10*
G04 #@! TO.C,R27*
X128500000Y-93087500D03*
X128500000Y-94912500D03*
G04 #@! TD*
D18*
G04 #@! TO.C,U5*
X134350000Y-92050000D03*
X134350000Y-93000000D03*
X134350000Y-93950000D03*
X131650000Y-93950000D03*
X131650000Y-92050000D03*
G04 #@! TD*
D15*
G04 #@! TO.C,C11*
X153087500Y-99000000D03*
X154912500Y-99000000D03*
G04 #@! TD*
D10*
G04 #@! TO.C,R14*
X118500000Y-79087500D03*
X118500000Y-80912500D03*
G04 #@! TD*
D11*
G04 #@! TO.C,C9*
X136500000Y-91912500D03*
X136500000Y-90087500D03*
G04 #@! TD*
D19*
G04 #@! TO.C,D2*
X157400000Y-112000000D03*
X154600000Y-112000000D03*
G04 #@! TD*
D11*
G04 #@! TO.C,R2*
X131500000Y-67912500D03*
X131500000Y-66087500D03*
G04 #@! TD*
G04 #@! TO.C,C18*
X162500000Y-105912500D03*
X162500000Y-104087500D03*
G04 #@! TD*
D14*
G04 #@! TO.C,C12*
X147412500Y-99000000D03*
X145587500Y-99000000D03*
G04 #@! TD*
D10*
G04 #@! TO.C,C17*
X159500000Y-98587500D03*
X159500000Y-100412500D03*
G04 #@! TD*
D20*
G04 #@! TO.C,Q2*
X137937500Y-69050000D03*
X137937500Y-70950000D03*
X136062500Y-70000000D03*
G04 #@! TD*
D15*
G04 #@! TO.C,R10*
X116587500Y-88500000D03*
X118412500Y-88500000D03*
G04 #@! TD*
G04 #@! TO.C,R33*
X144087500Y-103500000D03*
X145912500Y-103500000D03*
G04 #@! TD*
D14*
G04 #@! TO.C,C8*
X161412500Y-107500000D03*
X159587500Y-107500000D03*
G04 #@! TD*
D11*
G04 #@! TO.C,R38*
X160500000Y-105912500D03*
X160500000Y-104087500D03*
G04 #@! TD*
D10*
G04 #@! TO.C,R24*
X138000000Y-90087500D03*
X138000000Y-91912500D03*
G04 #@! TD*
D15*
G04 #@! TO.C,C16*
X145587500Y-106500000D03*
X147412500Y-106500000D03*
G04 #@! TD*
G04 #@! TO.C,C1*
X154087500Y-118000000D03*
X155912500Y-118000000D03*
G04 #@! TD*
D11*
G04 #@! TO.C,C7*
X136110000Y-84612500D03*
X136110000Y-82787500D03*
G04 #@! TD*
D14*
G04 #@! TO.C,R9*
X134912500Y-72000000D03*
X133087500Y-72000000D03*
G04 #@! TD*
D11*
G04 #@! TO.C,R25*
X164500000Y-105767500D03*
X164500000Y-103942500D03*
G04 #@! TD*
D15*
G04 #@! TO.C,R20*
X149587500Y-99000000D03*
X151412500Y-99000000D03*
G04 #@! TD*
D17*
G04 #@! TO.C,U3*
X138650000Y-84450000D03*
X138650000Y-83500000D03*
X138650000Y-82550000D03*
X141350000Y-82550000D03*
X141350000Y-84450000D03*
G04 #@! TD*
D15*
G04 #@! TO.C,R32*
X152087500Y-97500000D03*
X153912500Y-97500000D03*
G04 #@! TD*
D14*
G04 #@! TO.C,C10*
X130912500Y-80600000D03*
X129087500Y-80600000D03*
G04 #@! TD*
D11*
G04 #@! TO.C,C3*
X134500000Y-67912500D03*
X134500000Y-66087500D03*
G04 #@! TD*
D14*
G04 #@! TO.C,C6*
X118412500Y-87000000D03*
X116587500Y-87000000D03*
G04 #@! TD*
D10*
G04 #@! TO.C,R1*
X130000000Y-66087500D03*
X130000000Y-67912500D03*
G04 #@! TD*
D14*
G04 #@! TO.C,C14*
X147412500Y-105000000D03*
X145587500Y-105000000D03*
G04 #@! TD*
D15*
G04 #@! TO.C,R30*
X141587500Y-97500000D03*
X143412500Y-97500000D03*
G04 #@! TD*
D11*
G04 #@! TO.C,R16*
X139900000Y-80412500D03*
X139900000Y-78587500D03*
G04 #@! TD*
M02*
