M48
; DRILL file {KiCad 9.0.5} date 2026-05-07T17:31:11+0900
; FORMAT={-:-/ absolute / metric / decimal}
; #@! TF.CreationDate,2026-05-07T17:31:11+09:00
; #@! TF.GenerationSoftware,Kicad,Pcbnew,9.0.5
; #@! TF.FileFunction,Plated,1,2,PTH
FMAT,2
METRIC
; #@! TA.AperFunction,Plated,PTH,ViaDrill
T1C0.300
; #@! TA.AperFunction,Plated,PTH,ComponentDrill
T2C0.600
; #@! TA.AperFunction,Plated,PTH,ComponentDrill
T3C1.000
; #@! TA.AperFunction,Plated,PTH,ComponentDrill
T4C1.900
%
G90
G05
T1
X67.0Y-95.0
X68.0Y-94.0
X68.0Y-95.0
X68.0Y-105.0
X68.0Y-106.0
X69.0Y-94.0
X69.0Y-95.0
X69.0Y-105.0
X69.0Y-106.0
X70.0Y-94.0
X70.0Y-95.0
X70.0Y-96.0
X70.0Y-97.0
X70.0Y-98.0
X70.0Y-99.0
X70.0Y-101.0
X70.0Y-102.0
X70.0Y-103.0
X70.0Y-104.0
X70.0Y-105.0
X70.0Y-106.0
X71.0Y-94.0
X71.0Y-95.0
X71.0Y-96.0
X71.0Y-97.0
X71.0Y-98.0
X71.0Y-99.0
X71.0Y-101.0
X71.0Y-102.0
X71.0Y-103.0
X71.0Y-104.0
X71.0Y-105.0
X71.0Y-106.0
X79.4Y-95.5
X79.4Y-96.5
X79.4Y-97.5
X79.4Y-98.5
X79.4Y-102.0
X79.4Y-103.0
X79.4Y-104.0
X79.4Y-105.0
X80.4Y-95.5
X80.4Y-96.5
X80.4Y-97.5
X80.4Y-98.5
X80.4Y-102.0
X80.4Y-103.0
X80.4Y-104.0
X80.4Y-105.0
X81.5Y-104.0
X81.5Y-105.0
X82.5Y-104.0
X82.5Y-105.0
X83.5Y-93.5
X83.5Y-94.5
X83.5Y-95.5
X83.5Y-104.0
X83.5Y-105.0
X83.5Y-106.0
X83.5Y-107.0
X84.5Y-93.5
X84.5Y-94.5
X84.5Y-95.5
X84.5Y-96.5
X84.5Y-97.5
X84.5Y-98.5
X84.5Y-102.0
X84.5Y-103.0
X84.5Y-104.0
X84.5Y-105.0
X84.5Y-106.0
X84.5Y-107.0
X85.5Y-93.5
X85.5Y-94.5
X85.5Y-95.5
X85.5Y-96.5
X85.5Y-97.5
X85.5Y-98.5
X85.5Y-104.0
X85.5Y-105.0
X85.5Y-106.0
X85.5Y-107.0
X86.5Y-93.5
X86.5Y-94.5
X86.5Y-95.5
X86.5Y-96.5
X86.5Y-97.5
X86.5Y-98.5
X86.5Y-104.0
X86.5Y-105.0
X86.5Y-106.0
X86.5Y-107.0
X87.5Y-93.5
X87.5Y-94.5
X87.5Y-95.5
X87.5Y-104.0
X87.5Y-105.0
X87.5Y-106.0
X87.5Y-107.0
X112.0Y-93.5
X112.0Y-97.5
X112.0Y-102.5
X112.0Y-106.5
X112.5Y-99.0
X112.5Y-100.0
X112.5Y-101.0
X113.0Y-93.5
X113.0Y-94.5
X113.0Y-95.5
X113.0Y-96.5
X113.0Y-97.5
X113.0Y-102.5
X113.0Y-103.5
X113.0Y-104.5
X113.0Y-105.5
X113.0Y-106.5
X113.5Y-99.0
X113.5Y-100.0
X113.5Y-101.0
X114.0Y-93.5
X114.0Y-94.5
X114.0Y-105.5
X114.0Y-106.5
X115.0Y-93.5
X115.0Y-94.5
X115.0Y-105.5
X115.0Y-106.5
T2
X89.5Y-94.75
X89.5Y-98.75
X89.5Y-101.25
X89.5Y-105.25
X110.7Y-95.5
X110.7Y-100.0
X110.7Y-104.5
T3
X57.675Y-94.5
X57.675Y-105.5
X73.925Y-98.5
X73.925Y-101.0
X82.1Y-97.334
X82.1Y-102.334
X125.5Y-93.5
X125.5Y-106.5
T4
X67.675Y-97.5
X67.675Y-102.5
X115.5Y-96.5
X115.5Y-100.0
X115.5Y-103.5
M30
